<?xml version="1.0" encoding="utf-8"?>
<!-- Generator: Adobe Illustrator 17.0.2, SVG Export Plug-In . SVG Version: 6.00 Build 0)  -->
<!DOCTYPE svg PUBLIC "-//W3C//DTD SVG 1.1//EN" "http://www.w3.org/Graphics/SVG/1.1/DTD/svg11.dtd">
<svg version="1.1" id="Layer_1" xmlns="http://www.w3.org/2000/svg" xmlns:xlink="http://www.w3.org/1999/xlink" x="0px" y="0px"
	 width="1920px" height="870px" viewBox="0 0 1920 870" enable-background="new 0 0 1920 870" xml:space="preserve">
<g>
	<linearGradient id="SVGID_1_" gradientUnits="userSpaceOnUse" x1="950.8513" y1="942.1169" x2="957.0091" y2="649.6191">
		<stop  offset="0" style="stop-color:#B6CE37"/>
		<stop  offset="1" style="stop-color:#FFFFFF;stop-opacity:0"/>
	</linearGradient>
	<rect x="-3" y="287.598" fill="url(#SVGID_1_)" width="1923" height="582.402"/>
	<g>
		<path fill="#B6CE37" d="M243.668,606.465c8.62,3.852,17.24,7.706,25.86,11.558c1.042,0.698,2.219,1.094,3.339,1.617
			c0.837,0.391,1.685,0.756,2.532,1.124c0.79,0.343,1.536,0.8,2.387,0.983c2.894,1.281,5.798,2.536,8.678,3.851
			c2.775,1.266,5.552,2.533,8.333,3.784c2.111,0.95,4.23,1.89,6.358,2.804c2.822,1.213,5.62,2.483,8.419,3.752
			c1.334,0.604,2.644,1.263,3.965,1.896c0.082,0.167,0.081,0.342,0.052,0.521c-0.106,0.197-0.291,0.302-0.463,0.417
			c-3.311,2.22-6.66,4.377-9.989,6.567c-2.747,1.807-5.495,3.616-8.255,5.405c-4.471,2.898-8.918,5.836-13.377,8.755
			c-5.098,3.338-10.195,6.676-15.293,10.015c-4.807,3.148-9.606,6.31-14.416,9.454c-4.674,3.055-9.345,6.114-14.014,9.176
			c-1.006,0.659-1.977,1.382-3.046,1.933c-0.645,0.176-0.61-0.338-0.623-0.716c-0.13-3.897-0.411-7.786-0.545-11.682
			c-0.105-3.066-0.342-6.125-0.406-9.19c-0.077-3.686-0.403-7.359-0.461-11.047c-0.018-1.161-0.07-2.329-0.151-3.491
			c-0.183-2.633-0.279-5.27-0.361-7.907c-0.076-2.425-0.264-4.842-0.335-7.268c-0.103-3.492-0.327-6.98-0.497-10.471
			c-0.123-2.518-0.196-5.038-0.32-7.554c-0.064-1.308-0.044-2.616-0.129-3.921c-0.165-2.539-0.313-5.078-0.371-7.621
			c-0.032-1.428-0.164-2.848-0.187-4.277c-0.013-0.804-0.103-1.612-0.111-2.421c-0.001-0.088,0.041-0.374-0.172-0.098
			c-0.21,0.308-0.403,0.614-0.392,1.03c0.014,0.502-0.408,0.824-0.554,1.271c-0.062,0.189-0.299,0.181-0.467,0.026
			c0.407-1.02,0.787-2.051,1.229-3.054c0.491-1.113,0.617-1.141,1.684-0.654c0.93,0.506,1.828,1.092,2.885,1.291
			c1.833,0.816,3.666,1.63,5.499,2.446C241.194,605.326,242.307,606.187,243.668,606.465z"/>
		<path fill="#ADCA30" d="M163.634,691.481c0.221-0.057,0.441-0.113,0.661-0.173c1.381-0.372,2.762-0.745,4.143-1.116
			c0.413-0.15,0.878-0.126,1.253-0.404c3.354-0.899,6.71-1.79,10.061-2.7c1.785-0.485,3.541-1.08,5.352-1.457
			c0.334-0.069,0.37-0.296,0.407-0.56c0.529,0.002,1.037-0.123,1.546-0.26c3.049-0.823,6.076-1.729,9.138-2.502
			c0.135-0.021,0.269-0.048,0.406-0.06c0.719-0.183,1.471-0.244,2.143-0.609c0.089-0.047,0.181-0.088,0.279-0.11
			c0.63-0.037,1.264-0.057,1.805-0.462c0.693-0.242,1.34-0.644,2.068-0.753c1.567-0.236,3.105-0.629,4.621-1.071
			c1.941-0.566,3.904-1.037,5.841-1.612c0.234-0.069,0.483-0.202,0.701,0.049c0.194,0.34,0.21,0.722,0.253,1.101
			c0.34,2.929,0.609,5.865,0.932,8.796c0.237,2.151,0.512,4.299,0.693,6.453c0.302,3.602,0.832,7.174,1.118,10.778
			c0.14,1.775,0.313,3.554,0.582,5.315c0.127,0.835-0.05,1.722,0.374,2.511c0.168,0.08,0.35,0.099,0.53,0.131
			c3.576,0.628,7.179,1.065,10.757,1.671c0.45,0.076,0.937,0.082,1.07,0.686c0.081,0.754-0.008,1.512,0.02,2.267
			c-0.025,1.272,0.047,2.547-0.045,3.819c-0.119,0.341-0.089,0.697-0.095,1.049c-0.025,1.411,0.051,2.823-0.035,4.233
			c-0.104,0.321-0.1,0.653-0.104,0.987c-0.016,1.14,0.043,2.282-0.037,3.421c-0.112,0.321-0.096,0.654-0.101,0.987
			c-0.022,1.378,0.083,2.759-0.139,4.129c-0.046,0.287,0.037,0.665-0.428,0.661c-0.233-0.044-0.421-0.183-0.617-0.306
			c-2.02-1.267-4.032-2.551-6.053-3.816c-5.536-3.464-11.049-6.968-16.577-10.445c-5.469-3.438-10.921-6.906-16.389-10.344
			c-2.96-1.861-5.919-3.722-8.875-5.59c-3.131-1.98-6.26-3.965-9.395-5.938c-3.724-2.342-7.439-4.7-11.162-7.045
			c-0.133-0.104-0.257-0.221-0.38-0.339c-0.207-0.224-0.096-0.369,0.115-0.488c0.654-0.068,1.281-0.262,1.913-0.438
			C162.526,691.751,163.155,691.926,163.634,691.481z"/>
		<path fill="#9BC327" d="M324.84,675.656c0.428,0.247,0.879,0.447,1.293,0.736c0.791,0.55,1.605,1.081,2.529,1.378l-0.002-0.001
			c0.564,0.648,1.318,0.963,2.07,1.281l-0.003-0.003c0.281,0.315,0.602,0.552,0.975,0.758c0.68,0.375,1.399,0.688,2.032,1.144
			c0.879,0.632,1.856,1.084,2.744,1.697c0.576,0.397,1.263,0.63,1.823,1.023c1.54,1.083,3.192,1.951,4.802,2.9
			c0.611,0.452,1.266,0.824,1.935,1.172c0.131,0.135,0.29,0.223,0.453,0.31c0.92,0.499,1.797,1.079,2.687,1.631
			c0.81,0.503,1.614,1.004,2.49,1.372l-0.002-0.002c0.245,0.307,0.563,0.517,0.894,0.705c0.282,0.161,0.4,0.358,0.195,0.664
			c-0.19,0.142-0.415,0.195-0.634,0.262c-2.216,0.681-4.434,1.36-6.642,2.068c-4.352,1.396-8.715,2.756-13.075,4.126
			c-4.536,1.425-9.061,2.888-13.6,4.307c-4.604,1.439-9.202,2.9-13.805,4.341c-0.406,0.127-0.685,0.348-0.9,0.701
			c-0.332,0.022-0.341-0.266-0.401-0.477c-1.158-4.115-2.579-8.141-3.901-12.198c-2.093-6.426-4.188-12.852-6.279-19.279
			c-0.32-0.984-0.316-0.984-1.319-1.069c-0.068-0.006-0.13-0.043-0.189-0.081c-0.102-0.416,0.249-0.371,0.443-0.432
			c0.361-0.114,0.689-0.248,0.887-0.612c0.325-0.602,0.719-1.158,1.068-1.746c2.213-3.724,4.413-7.454,6.645-11.164
			c0.138-0.229,0.212-0.547,0.551-0.58c0.747,0.414,1.444,0.914,2.181,1.345c2.968,1.738,5.888,3.566,8.856,5.305
			c1.373,0.805,2.661,1.766,4.106,2.439c1.765,1.094,3.548,2.158,5.316,3.247c0.979,0.603,2.021,1.105,2.911,1.862
			c0.033,0.022,0.043,0.053,0.028,0.09C324.199,675.232,324.489,675.454,324.84,675.656z"/>
		<path fill="#73A52E" d="M290.192,675.443c-4.3,1.148-8.598,2.311-12.903,3.444c-3.573,0.94-7.144,1.889-10.707,2.865
			c-2.833,0.776-5.677,1.502-8.513,2.264c-3.058,0.823-6.12,1.63-9.18,2.447c-3.192,0.852-6.388,1.691-9.577,2.555
			c-1.372,0.372-2.731,0.802-4.131,1.048c-0.149-0.035-0.321-0.043-0.303-0.276c1.116-0.647,2.17-1.395,3.246-2.11
			c2.829-1.878,5.679-3.723,8.52-5.582c4.234-2.771,8.467-5.541,12.7-8.314c2.936-1.924,5.868-3.852,8.804-5.776
			c4.251-2.786,8.501-5.574,12.755-8.355c3.018-1.973,6.046-3.93,9.061-5.905c3.324-2.177,6.636-4.371,9.958-6.551
			c2.762-1.813,5.53-3.617,8.298-5.419c1.761-1.146,3.528-2.283,5.292-3.423c0.145,0.142,0.046,0.248-0.048,0.354
			c-0.246,0.277-0.45,0.581-0.635,0.911c-0.689,1.231-1.35,2.479-2.104,3.675c-0.391,0.622-0.904,1.18-1.145,1.905
			c-0.054,0.043-0.123,0.08-0.153,0.139c-0.582,1.155-1.317,2.216-1.929,3.345c-0.329,0.606-0.91,1.068-1.01,1.807
			c-0.211,0.311-0.401,0.635-0.51,1.002c-0.834,1.427-1.668,2.854-2.502,4.28c-0.028,0.288-0.109,0.559-0.271,0.794
			c-0.627,0.908-1.106,1.912-1.715,2.829c-0.28,0.421-0.405,0.966-0.887,1.231c-2.229,3.724-4.428,7.47-6.704,11.163
			c-0.773,1.256-1.151,2.958-2.927,3.267C290.792,675.364,290.476,675.366,290.192,675.443z"/>
		<path fill="#96C222" d="M230.096,731.448c0.015,1.256,0.075,2.516-0.028,3.765c-0.045,0.55,0.009,1.143-0.258,1.666
			c-0.132,0.182-0.318,0.269-0.516,0.339c-2.062,0.721-4.087,1.543-6.134,2.305c-6.466,2.407-12.914,4.865-19.388,7.248
			c-1.571,0.579-3.098,1.311-4.754,1.629c-0.771,0.153-1.539,0.316-2.179,0.836c-0.285,0.247-0.617,0.398-0.965,0.529
			c-3.095,1.169-6.193,2.329-9.292,3.486c-1.265,0.473-2.493,1.076-3.832,1.322c-0.422-0.175-0.321-0.595-0.338-0.909
			c-0.118-2.091-0.302-4.174-0.501-6.257c-0.075-0.781,0.019-1.588-0.126-2.35c-0.353-1.854-0.284-3.743-0.535-5.606
			c-0.272-2.02-0.337-4.072-0.484-6.11c-0.06-0.83-0.059-1.666-0.155-2.491c-0.385-3.303-0.446-6.63-0.758-9.937
			c-0.092-0.187-0.084-0.375-0.009-0.565c0.14-0.054,0.269,0.001,0.4,0.045c4.099,1.37,8.209,2.702,12.318,4.037
			c3.148,1.023,6.296,2.046,9.445,3.068c2.885,0.937,5.773,1.863,8.653,2.818c3.012,0.998,6.035,1.958,9.039,2.982
			c3.175,1.081,6.416,1.949,9.534,3.214c0.239,0.05,0.388,0.085,0.425-0.297c0.15-1.51,0.109-3.022,0.125-4.534
			c0.004-0.251-0.083-0.526,0.124-0.744C230.066,731.067,230.098,731.254,230.096,731.448z"/>
		<path fill="#5A802E" d="M351.112,693.201c-0.475,0.474-0.951,0.95-1.426,1.425c-0.292,0.218-0.525,0.506-0.805,0.738
			c-0.047,0.045-0.094,0.089-0.141,0.134c-0.583,0.227-0.956,0.742-1.421,1.13c-1.403,1.293-2.664,2.74-4.06,4.041
			c-2.082,1.536-3.698,3.584-5.513,5.413l0,0c-0.274,0.151-0.498,0.361-0.693,0.608c-0.139,0.167-0.359,0.195-0.518,0.336
			c-1.641,1.457-3.069,3.149-4.806,4.51c-0.838,0.658-1.523,1.56-2.305,2.32c-0.833,0.809-1.522,1.765-2.417,2.508
			c-0.082,0.1-0.162,0.2-0.243,0.3c-1.364,0.747-2.314,1.985-3.389,3.076c-0.909,0.822-1.651,1.837-2.702,2.493
			c-1.453,1.572-3.06,2.982-4.489,4.578c-0.078,0.088-0.169,0.159-0.283,0.191c-0.602,0.546-1.388,0.859-1.85,1.581
			c-1.064,1.146-2.23,2.186-3.25,3.378l0.002-0.002c-0.273,0.112-0.558,0.197-0.776,0.423c-1.06,1.094-2.128,2.178-3.17,3.29
			c-0.7,0.631-1.307,1.358-1.97,2.027c-0.278,0.273-0.556,0.545-0.834,0.818c-0.4,0.086-0.553-0.272-0.768-0.486
			c-2.213-2.2-4.261-4.571-6.431-6.817c-1.388-1.437-2.783-2.868-4.12-4.357c0.056-0.149,0.189-0.193,0.315-0.249
			c4.444-1.988,8.811-4.16,13.296-6.054c0.161-0.065,0.339-0.1,0.445-0.263c0.044-0.082,0.055-0.168,0.027-0.257
			c-1.297-3.705-2.412-7.476-3.687-11.191c-0.07-0.204-0.111-0.412-0.047-0.628c-0.146-0.609,0.281-0.704,0.682-0.83
			c2.274-0.709,4.549-1.415,6.82-2.134c4.521-1.43,9.039-2.874,13.561-4.299c4.174-1.315,8.353-2.613,12.529-3.922
			c5.022-1.574,10.043-3.152,15.064-4.728C351.812,692.817,351.31,692.896,351.112,693.201z"/>
		<path fill="#9CC430" d="M196.635,682.344c-0.093,0.046-0.185,0.093-0.278,0.139c-0.104-0.127-0.074-0.266-0.023-0.399
			c0.317-0.828,0.661-1.642,0.998-2.462c0.06-0.125,0.182,0.23,0.255-0.053c0.066-0.258,0.231-0.488,0.182-0.777
			c0.011-0.243,0.111-0.46,0.199-0.678c1.05-2.583,2.114-5.161,3.203-7.727c0.15-0.353,0.26-0.702,0.269-1.086
			c0.22-0.215,0.36-0.479,0.493-0.761c1.059-2.255,1.767-4.679,3.075-6.812c-0.011-0.039-0.002-0.072,0.028-0.099
			c0.42-0.554,0.638-1.202,0.806-1.874c0.549-1.332,1.098-2.664,1.647-3.996c0.087-0.078,0.18-0.153,0.231-0.261
			c0.452-0.972,0.851-1.969,1.203-2.983c0.274-0.79,0.801-1.472,0.905-2.333l-0.002,0.004c0.222-0.301,0.31-0.66,0.411-1.015
			c0.98-2.343,2.027-4.66,2.926-7.036c1.227-3.246,2.638-6.407,3.942-9.617c1.455-3.582,3.015-7.119,4.464-10.704
			c1.421-3.513,2.853-7.02,4.364-10.492c0.16-0.213,0.16-0.488,0.26-0.725l-0.001,0.001c0.376-0.623,0.667-1.283,0.83-2
			c0.545-1.287,1.089-2.575,1.634-3.862c0.154,0,0.383,0.044,0.396-0.155c0.036-0.575,0.62-0.955,0.477-1.599
			c-0.053-0.237,0.185-0.403,0.388-0.521c0.136,0.174,0.056,0.359,0.028,0.545c-0.193,1.27-0.514,2.512-0.771,3.766
			c-0.691,3.374-1.391,6.746-2.124,10.11c-1.218,5.594-2.422,11.191-3.557,16.803c-0.758,3.746-1.792,7.424-2.395,11.21
			c-0.305,1.916-0.762,3.817-1.185,5.719c-0.51,2.295-0.972,4.602-1.473,6.899c-0.806,3.69-1.551,7.394-2.359,11.084
			c-0.609,2.784-1.119,5.591-1.773,8.366c-0.06,0.253-0.098,0.52-0.345,0.67c-2.131,0.734-4.341,1.161-6.488,1.842
			c-2.14,0.68-4.407,0.861-6.509,1.719c-0.061,0.025-0.136,0.01-0.204,0.012c-0.561,0.294-1.201,0.236-1.786,0.429
			c-0.046,0.048-0.092,0.096-0.139,0.143C198.109,681.99,197.329,681.994,196.635,682.344z"/>
		<path fill="#486528" d="M303.763,751.079c-0.046,0.003-0.091,0.007-0.137,0.01c-1.077,0.104-2.05,0.539-3.01,1.02l0.004-0.003
			c-0.396,0.21-0.886,0.115-1.251,0.421c-0.122,0.063-0.238,0.144-0.367,0.187c-3.017,1-6.035,1.993-9.052,2.993
			c-3.492,1.158-6.983,2.322-10.475,3.48c-0.276,0.091-0.531,0.29-0.847,0.203c-0.415,0.161-0.91,0.061-1.262,0.424l0.004-0.002
			c-0.531-0.039-1.056,0.545-1.592,0.018c-0.305-0.483-0.463-1.032-0.642-1.57c-0.988-2.962-2.021-5.908-3.013-8.868
			c-0.774-2.31-1.663-4.578-2.305-6.937c-0.047-0.136-0.102-0.269-0.155-0.403c-0.5-1.197-0.899-2.429-1.199-3.695
			c-0.02-0.358,0.222-0.479,0.481-0.609c1.895-0.945,3.896-1.65,5.729-2.736c0.105-0.062,0.222-0.039,0.328,0.021
			c0.136,0.449,0.544,0.552,0.885,0.716c3.816,1.849,7.615,3.734,11.434,5.576c5.875,2.833,11.724,5.721,17.606,8.535
			c0.268,0.129,0.556,0.241,0.646,0.586c-0.161,0.269-0.417,0.246-0.67,0.235C304.521,750.801,304.082,750.757,303.763,751.079z"/>
		<path fill="#61872E" d="M229.379,737.522c-0.844,0.964-1.671,1.943-2.524,2.896c-2.513,2.811-4.967,5.679-7.507,8.464
			c-0.168,0.242-0.38,0.442-0.584,0.65c-1.275,1.642-2.716,3.129-4.079,4.689c-1.193,1.365-2.473,2.648-3.635,4.046
			c-0.19,0.039-0.322,0.134-0.326,0.355c-0.054,0.189-0.182,0.324-0.307,0.464c-1.106,1.23-2.22,2.451-3.296,3.711
			c-0.146,0.17-0.381,0.296-0.288,0.592c-0.363,0.252-0.716,0.168-1.1,0.019c-2.045-0.793-4.099-1.561-6.147-2.345
			c-1.813-0.694-3.622-1.396-5.433-2.094c-0.706-0.369-1.408-0.747-2.206-0.866l0.005,0.004c-0.74-0.415-1.539-0.659-2.352-0.86
			c-1.098-0.424-2.196-0.846-3.294-1.269c-0.543-0.383-1.133-0.639-1.787-0.729l0.005,0.003c-0.341-0.372-0.825-0.304-1.243-0.44
			c-0.214,0.009-0.37-0.118-0.529-0.24c0.597-0.477,1.345-0.589,2.022-0.85c3.408-1.311,6.844-2.542,10.258-3.834
			c0.595-0.225,1.242-0.36,1.747-0.807c0.724-0.318,1.462-0.594,2.209-0.845c0.742-0.225,1.497-0.413,2.224-0.683
			c2.71-1.006,5.41-2.042,8.115-3.06c3.501-1.318,7.001-2.636,10.507-3.943c3.263-1.217,6.532-2.419,9.799-3.627
			C229.749,737.214,229.521,737.357,229.379,737.522z"/>
		<path fill="#7BAF2B" d="M197.456,679.632c-0.245,1.002-0.749,1.897-1.099,2.855c-1.506,0.231-2.926,0.809-4.397,1.179
			c-1.967,0.495-3.921,1.049-5.871,1.611c-0.292,0.084-0.42-0.035-0.58-0.203c-0.379-2.051-0.765-4.101-1.132-6.155
			c-0.545-3.052-0.937-6.132-1.567-9.167c-0.266-1.277-0.719-2.536-0.805-3.824c-0.157-2.355-0.779-4.615-1.085-6.935
			c-0.219-1.661-0.612-3.297-0.928-4.945c-0.083-0.25-0.165-0.548,0.046-0.72c0.212-0.173,0.489-0.022,0.708,0.102
			c0.362,0.204,0.703,0.446,1.028,0.712c1.133,0.928,2.32,1.782,3.485,2.665c5.236,3.967,10.464,7.945,15.704,11.907
			c0.207,0.157,0.504,0.268,0.493,0.624c0.249,0.207,0.175,0.451,0.07,0.695c-0.233,0.541-0.481,1.076-0.704,1.621
			c-0.987,2.418-1.967,4.839-2.95,7.259C197.773,679.178,197.746,679.486,197.456,679.632z"/>
		<path fill="#7FB12A" d="M275.705,734.618c5.314-2.463,10.637-4.907,15.956-7.361c0.347-0.16,0.692-0.395,1.109-0.308
			c0.163-0.01,0.299,0.009,0.425,0.157c0.315,0.37,0.65,0.722,0.984,1.074c2.063,2.177,4.152,4.325,6.175,6.543
			c1.191,1.306,2.386,2.614,3.697,3.796c-0.051,2.248,0.616,4.392,0.886,6.592c0.218,1.778,0.697,3.523,0.638,5.336
			c-0.239-0.138-0.469-0.294-0.716-0.414c-3.99-1.94-7.984-3.873-11.975-5.812c-4.593-2.233-9.184-4.471-13.776-6.707
			c-1.322-0.644-2.644-1.29-3.968-1.932c-0.254-0.124-0.485-0.236-0.1-0.493C275.179,734.806,275.459,734.733,275.705,734.618z"/>
		<path fill="#75492C" d="M240.742,806.171c-0.087-1.647,0.229-3.268,0.282-4.91c0.098-3.041,0.351-6.076,0.528-9.114
			c0.077-1.329,0.035-2.665,0.224-3.987c0.267-1.864,0.357-3.741,0.303-5.625c-0.01-0.333,0.002-0.666,0.04-0.999
			c0.222-1.963,0.264-3.937,0.381-5.908c0.059-0.99,0.02-1.999,0.347-2.958c0.123-0.173,0.252-0.197,0.381-0.011
			c0.162,0.233,0.273,0.497,0.371,0.763c1.187,3.221,2.419,6.424,3.617,9.642c2.032,5.459,4.103,10.901,6.14,16.357
			c0.612,1.639,1.265,3.26,1.885,4.896c0.073,0.517,0.252,0.991,0.534,1.422c0.125,0.189,0.17,0.394,0.11,0.618
			c-0.029,0.067-0.067,0.127-0.116,0.181c-4.061,0.011-8.122,0.025-12.183,0.032c-0.888,0.002-1.778-0.025-2.666-0.038
			C240.83,806.427,240.766,806.311,240.742,806.171z"/>
		<path fill="#ADCA30" d="M304.094,656.15c2.098,0.309,4.203,0.588,6.294,0.951c3.331,0.577,6.655,1.202,10.007,1.645
			c1.697,0.224,3.345,0.744,5.065,0.852c0.953,0.06,1.899,0.285,2.841,0.468c0.319,0.062,0.729,0.134,0.526,0.675
			c-0.623,0.2-1.075,0.697-1.628,1.021c-2.348,1.756-4.764,3.412-7.125,5.15c-0.605,0.411-1.193,0.849-1.794,1.267
			c-0.817,0.569-1.548,1.294-2.52,1.602c-0.237,0.01-0.449-0.07-0.65-0.193c-1.137-0.695-2.271-1.396-3.413-2.083
			c-3.173-1.907-6.363-3.783-9.51-5.734c-0.54-0.335-1.223-0.515-1.582-1.143c0.958-1.619,1.915-3.237,2.873-4.855
			C303.6,656.047,303.83,656.111,304.094,656.15z"/>
		<path fill="#956744" d="M240.026,806.39c-0.076-0.002-0.151-0.008-0.226-0.02c-1.822-0.521-3.612-1.148-5.391-1.806
			c-0.594-0.219-1.246-0.257-1.788-0.627c0.259-0.107,0.36-0.301,0.357-0.594c-0.004-0.488,0.083-0.966,0.21-1.435
			c0.175,0.094,0.14,0.276,0.137,0.463c0.086-0.327,0.122-0.625,0.146-0.924c1.043-3.817,2.346-7.549,3.535-11.317
			c1.204-3.814,2.393-7.634,3.64-11.433c0.7-2.134,1.365-4.281,2.022-6.43c0.183-0.13,0.247,0.003,0.305,0.149
			c0.002,0.036,0.004,0.072,0.006,0.108c-0.153,0.604-0.114,1.223-0.15,1.838c-0.188,3.237-0.498,6.466-0.537,9.713
			c-0.007,0.595,0.066,1.202-0.025,1.782c-0.396,2.51-0.41,5.043-0.538,7.571c-0.078,1.56-0.217,3.116-0.287,4.678
			c-0.123,2.717-0.346,5.428-0.528,8.142C240.646,806.479,240.326,806.362,240.026,806.39z"/>
		<path fill="#39271B" d="M255.249,790.595c0.045,2.047,0.284,4.079,0.332,6.125c0.027,1.163,0.132,2.326,0.205,3.488
			c0.059,0.925,0.225,1.843,0.174,2.775c-0.011,0.205-0.009,0.483-0.257,0.524c-0.212,0.035-0.253-0.225-0.343-0.381
			c-0.08-0.224-0.135-0.457-0.162-0.693c-0.253-2.22-0.516-4.44-0.72-6.665c-0.428-4.664-1.011-9.31-1.485-13.969
			c-0.359-3.525-0.755-7.046-1.137-10.569c-0.402-3.71-0.758-7.428-1.184-11.134c-0.364-3.163-0.625-6.338-1.021-9.498
			c-0.331-2.641-0.565-5.295-0.846-7.942c-0.226-2.127-0.541-4.244-0.666-6.381c-0.03-0.514-0.253-1.025-0.025-1.544
			c0.401-0.299,0.58,0.107,0.779,0.302c1.16,1.139,2.158,2.441,3.312,3.588c0.29,0.288,0.451,0.663,0.441,1.086
			c-0.044,1.946,0.291,3.869,0.303,5.81c0.207,2.661,0.028,5.338,0.301,7.997c0.163,1.089,0.272,2.182,0.237,3.286
			c-0.072,1.114,0.179,2.212,0.143,3.324c-0.014,0.443-0.159,0.889,0.001,1.333c0.002,0.117,0.026,0.24-0.069,0.336
			c0.012,0.404,0.037,0.808,0.037,1.211c0.001,3.922,0.477,7.82,0.523,11.74c0.032,2.683,0.411,5.344,0.525,8.02
			c0.075,1.753,0.256,3.503,0.172,5.263C254.785,788.918,255.232,789.745,255.249,790.595z"/>
		<path fill="#4C6C2A" d="M224.561,756.365c0.609,0.723,1.304,1.376,1.749,2.238c-0.339,0.032-0.676,0.018-1.018,0.109
			c-2.347,0.62-4.699,1.216-7.049,1.82c-0.434,0.205-0.886-0.082-1.338,0.082c-1.146,0.416-2.319,0.739-3.505,1.02
			c-0.69,0.163-1.43,0.164-2.049,0.597c-1.509,0.373-2.987,0.882-4.519,1.16c-0.504-0.005-0.317-0.192-0.113-0.419
			c1.321-1.476,2.636-2.957,3.953-4.437c0.021-0.172,0.114-0.27,0.279-0.295c0.156-0.343,0.382-0.625,0.636-0.9
			c1.729-1.878,3.48-3.736,5.15-5.669c0.648-0.75,1.399-1.415,1.918-2.284C220.6,751.734,222.596,754.034,224.561,756.365z"/>
		<path fill="#AFCC3F" d="M179.926,653.323c0.273-0.276,0.663-0.128,0.974-0.014c1.522,0.559,3.037,1.142,4.551,1.723
			c2.243,0.861,4.481,1.737,6.727,2.589c2.135,0.809,4.279,1.596,6.419,2.394c1.823,0.68,3.652,1.346,5.466,2.05
			c0.449,0.174,0.723,0.061,0.944-0.336c-0.25,0.855-0.719,1.609-1.029,2.443c-0.596,1.607-1.327,3.158-1.992,4.737
			c-0.108,0.257-0.211,0.479-0.532,0.429c-1.964-1.498-3.927-2.996-5.893-4.492c-1.894-1.441-3.79-2.88-5.687-4.317
			c-3.021-2.288-6.044-4.573-9.065-6.86c-0.203-0.154-0.413-0.375-0.67-0.264c-0.267,0.116-0.071,0.431-0.148,0.644
			C179.828,653.818,179.758,653.496,179.926,653.323z"/>
		<path fill="#354B1F" d="M275.549,759.822l-0.059,0.005l-0.055-0.02c-0.631-0.529-1.287-1.013-2.067-1.284h0.002
			c-0.318-0.438-0.745-0.705-1.249-0.847v0.004c-0.952-0.776-1.909-1.544-3.059-1.993c-0.442-0.297-0.884-0.594-1.326-0.89
			c-1.279-1.193-2.813-1.971-4.293-2.838c-0.31-0.149-0.621-0.297-0.931-0.446c-0.071-0.159,0.016-0.276,0.108-0.379
			c1.525-1.693,2.99-3.444,4.485-5.164c0.998-1.148,2.139-2.186,2.831-3.599c0.246,0.209,0.139,0.531,0.233,0.795
			c0.592,1.644,1.155,3.301,1.716,4.957c0.741,2.191,1.43,4.402,2.22,6.574c0.613,1.684,1.142,3.396,1.734,5.087
			C275.752,759.881,275.655,759.891,275.549,759.822z"/>
		<path fill="#4F3525" d="M219.193,748.806c0.604-0.27,0.871,0.235,1.21,0.572c0.175,0.284,0.403,0.522,0.639,0.745
			c2.522,2.387,4.957,4.872,7.42,7.322c3.275,3.258,6.546,6.519,9.825,9.772c1.077,1.067,2.084,2.208,3.222,3.213
			c0.489,0.432,1.074,0.828,1.278,1.536c-0.02,0.128-0.107,0.199-0.207,0.258c-1.268,0.314-2.57,0.255-3.857,0.368
			c-0.251,0.022-0.5-0.027-0.703-0.21c-0.089-0.143-0.177-0.285-0.266-0.428c-0.326-0.611-0.863-1.034-1.286-1.558
			c-0.473-0.659-0.923-1.333-1.495-1.91c-0.682-0.689-1.325-1.397-1.856-2.246c-0.418-0.669-0.984-1.303-1.7-1.712
			c-0.608-0.567-1.126-1.219-1.63-1.883c-0.173-0.274-0.217-0.61-0.464-0.856c-0.788-0.784-1.543-1.603-2.317-2.402
			c-0.232-0.262-0.463-0.524-0.695-0.787c-0.139-0.118-0.296-0.221-0.414-0.359c-2.018-2.37-4.057-4.721-6.026-7.135
			c-0.436-0.533-1.131-0.908-1.216-1.721C218.834,749.193,219.014,749,219.193,748.806z"/>
		<path fill="#825737" d="M242.837,772.242c-0.246,0.222-0.093,0.54-0.18,0.808c-1.047,3.232-2.086,6.467-3.117,9.705
			c-1.153,3.62-2.292,7.244-3.442,10.865c-0.836,2.633-1.732,5.246-2.471,7.912c-0.087,0.045-0.153,0.024-0.199-0.065
			c-0.075-0.715,0.138-1.402,0.188-2.106c0.261-2.213,0.85-4.365,1.084-6.587c0.161-1.531,0.474-3.046,0.729-4.565
			c0.282-1.682,0.557-3.366,0.863-5.043c0.259-1.415,0.607-2.813,0.828-4.233c0.339-2.177,0.604-4.367,0.901-6.552
			c1.57,0.023,3.125-0.206,4.687-0.287C242.838,772.061,242.875,772.117,242.837,772.242z"/>
		<path fill="#5A802E" d="M320.539,666.932c0.432-0.103,0.617-0.523,0.952-0.706c0.83-0.454,1.309-1.357,2.152-1.768
			c0.545-0.266,0.91-0.753,1.386-1.105c0.732-0.54,1.563-0.962,2.134-1.721c0.378-0.283,0.757-0.564,1.131-0.851
			c0.173-0.132,0.34-0.234,0.532-0.039c-0.699,2.01-1.397,4.02-2.095,6.03c-0.33,0.319-0.269,0.78-0.394,1.173
			c-0.788,2.28-1.576,4.561-2.364,6.841c-0.209-0.092-0.429-0.161-0.624-0.278c-1.995-1.197-4.005-2.369-5.967-3.624
			c-0.546-0.35-1.24-0.491-1.626-1.102c1.411-1.002,2.822-2.003,4.233-3.004C320.149,666.923,320.292,666.99,320.539,666.932z"/>
		<path fill="#442E1E" d="M255.664,790.129c0.502,0.837,0.995,1.679,1.493,2.519c0.428,1.067,1.134,1.967,1.65,2.981
			c0.302,0.374,0.414,0.887,0.817,1.186l0.001-0.004c0.095,0.187,0.254,0.358,0.223,0.585c-0.039,0.289,0.205-0.043,0.212,0.117
			c0.135,0.231,0.269,0.462,0.404,0.693c0.099,0.27,0.132,0.579,0.407,0.746l-0.003-0.004c0.167,0.726,0.756,1.208,1.004,1.887
			c0.316,0.571,0.668,1.116,1.024,1.66c0.031,0.221,0.082,0.432,0.246,0.593c0.033,0.058,0.067,0.117,0.096,0.176
			c0.194,0.459,0.069,0.761-0.388,0.947c-1.887,0.766-3.81,1.425-5.73,2.091c-0.207,0.046-0.41,0.111-0.616,0.16
			c-0.244-0.028-0.5,0.075-0.733-0.069c-0.022-0.197,0.06-0.421-0.137-0.573c-0.239-0.545-0.164-1.149-0.294-1.717
			c-0.077-0.337-0.115-0.702,0.155-0.996c0.144,0.026,0.074,0.277,0.256,0.269c0.006-0.05,0.018-0.095,0.017-0.139
			c-0.089-2.625-0.402-5.234-0.452-7.863c-0.013-0.696-0.102-1.416-0.108-2.121c-0.016-1.753-0.519-3.463-0.389-5.225
			C254.829,788.845,255.273,789.474,255.664,790.129z"/>
		<path fill="#5D3D28" d="M263.406,803.34c0.244,0.51,0.705,0.531,1.162,0.552c0.746,0.033,1.494-0.058,2.239,0.05
			c0.159-0.001,0.32-0.015,0.478-0.001c3.274,0.297,6.559,0.491,9.837,0.708c3.35,0.221,6.697,0.513,10.052,0.645
			c0.225,0.01,0.45,0.052,0.674,0.079c-0.623,0.204-1.274,0.017-1.905,0.114c0.666-0.099,1.349,0.088,2.008-0.102
			c3.341,0.194,6.667,0.663,10.022,0.639c0.278-0.002,0.603-0.038,0.83,0.231c-2.856,0.153-5.714,0.017-8.57,0.07
			c2.611-0.001,5.22,0.001,7.831-0.004c0.248,0,0.504,0.063,0.744-0.062c0.199,0.149,0.067,0.259-0.065,0.279
			c-0.27,0.041-0.547,0.042-0.821,0.042c-11.1-0.001-22.201-0.001-33.301-0.008c-2.951-0.002-5.903-0.023-8.853-0.035
			c0.002-0.048,0.004-0.096,0.004-0.145c0.274,0.001,0.548,0.001,0.823,0.002c0.145-0.091,0.304-0.08,0.466-0.079
			c7.468,0.024,14.937,0.004,22.405,0.013c0.224,0,0.45-0.039,0.672,0.028c0.048,0.015,0.059,0.031,0.025,0.068
			c-0.062,0.069,0.092,0.029,0.01-0.032c-0.193-0.114-0.412-0.068-0.62-0.068c-3.505-0.003-7.01-0.003-10.515-0.003
			c-3.803,0-7.606,0.003-11.409-0.011c-0.203-0.001-0.517,0.196-0.62-0.202c0.219-0.051,0.446-0.08,0.657-0.158
			c1.62-0.604,3.225-1.25,4.859-1.81c0.58-0.199,0.791-0.444,0.534-1.033C263.253,803.061,263.337,803.188,263.406,803.34z"/>
		<path fill="#83583B" d="M238.892,806.387c-5.838,0.006-11.675,0.004-17.513,0.006c-0.319,0-0.641-0.036-0.957,0.051
			c-4.82,0.039-9.642,0.034-14.462-0.011c-0.805-0.007-1.612-0.262-2.435-0.121c-0.101,0.018-0.247,0.029-0.274-0.125
			c-0.035-0.203,0.146-0.274,0.257-0.384c2.155-0.144,4.308-0.287,6.462-0.43c0.619,0.213,1.255,0.01,1.878,0.103
			c-0.589-0.068-1.187,0.089-1.771-0.107c2.074-0.139,4.148-0.278,6.222-0.417c0.63,0.189,1.271,0.016,1.905,0.082
			c-0.509-0.043-1.027,0.1-1.529-0.097c0.734-0.114,1.472-0.144,2.213-0.133c1.104-0.123,2.212-0.013,3.317-0.06
			c0.51-0.022,1.038,0.039,1.515-0.232c0.229-0.139,0.487-0.099,0.733-0.121c1.426-0.126,2.858-0.12,4.286-0.283
			c1.282-0.146,2.582-0.26,3.881-0.174c0.293,0.035,0.602,0.018,0.876,0.112c2.111,0.722,4.215,1.464,6.322,2.2
			C239.538,806.489,239.203,806.388,238.892,806.387z"/>
		<path fill="#402D1F" d="M262.279,751.679c-0.42,0.478-0.937,0.864-1.265,1.429l0.003-0.004c-0.918,0.659-1.574,1.599-2.366,2.392
			c-0.115,0.198-0.185,0.415-0.248,0.635c-0.037,0.04-0.074,0.081-0.11,0.122c-0.259,0.155-0.434,0.41-0.641,0.619
			c-0.813,0.821-1.649,1.621-2.352,2.553c-0.603,0.675-1.266,1.296-1.733,2.093c-0.426-0.324-0.15-0.745-0.129-1.122
			c0.069-1.205-0.236-2.392-0.141-3.596c0.303-0.357,0.615-0.707,0.973-1.003c1.879-1.556,3.61-3.289,5.386-4.963
			c2.15-2.027,4.372-3.971,6.474-6.051c0.76-0.752,1.671-1.337,2.301-2.234c0.239-0.316,0.574-0.501,0.894-0.707
			c0.284-0.182,0.388,0.004,0.479,0.234c0.044,0.097,0.089,0.196,0.132,0.293c-0.011,0.302,0.032,0.597-0.206,0.864
			c-0.787,0.883-1.544,1.794-2.322,2.686c-1.629,1.867-3.263,3.729-4.895,5.593C262.435,751.569,262.357,751.625,262.279,751.679z"
			/>
		<path fill="#895E41" d="M220.836,806.323c5.883,0.005,11.766-0.011,17.649,0.008c0.108,0.03,0.14,0.098,0.096,0.205
			c-0.113,0.012-0.227,0.034-0.34,0.034c-5.912,0-11.822,0.018-17.733-0.011c-6.34-0.032-12.68,0.012-19.019-0.112
			c-1.607-0.031-3.232,0.108-4.85,0.086c-0.077-0.048-0.08-0.101-0.009-0.158c2.28-0.367,4.588-0.36,6.88-0.57
			c-0.051,0.126-0.174,0.288-0.137,0.371c0.063,0.142,0.239,0.061,0.364,0.025c0.592-0.173,1.176-0.141,1.745,0.086
			c0.244,0.098,0.488,0.108,0.74,0.108c4.738-0.002,9.476-0.003,14.214-0.005C220.559,806.304,220.7,806.325,220.836,806.323z"/>
		<path fill="#7E944F" d="M337.181,706.644c-2.68,2.588-5.352,5.184-8.043,7.757c-0.698,0.668-1.283,1.472-2.132,1.965
			c0.495-0.588,0.938-1.234,1.493-1.751c1.429-1.33,2.569-2.964,4.236-4.063c0.924-0.609,1.586-1.638,2.412-2.423
			c0.581-0.552,1.1-1.205,1.876-1.499C337.08,706.584,337.132,706.588,337.181,706.644z"/>
		<path fill="#AFCD52" d="M331.102,679.212c4.002,2.417,8.003,4.836,12.004,7.255c0.012,0,0.023,0.019,0.032,0.06
			c0.01,0.039-0.006,0.075-0.045,0.11c-0.755-0.301-1.411-0.822-2.117-1.166c-1.166-0.569-2.2-1.353-3.352-1.937
			c-1.04-0.527-1.982-1.261-3.008-1.824c-0.849-0.466-1.586-1.108-2.498-1.492c-0.508-0.214-1.292-0.327-1.39-1.171
			C330.852,679.1,330.986,679.141,331.102,679.212z"/>
		<path fill="#95B25D" d="M177.699,717.634c-1.786-2.532-3.599-5.043-5.401-7.563c-0.062-0.06-0.062-0.119-0.001-0.18
			c0.276-0.112,0.416,0.093,0.577,0.261c0.71,0.739,1.275,1.617,1.829,2.461c0.897,1.366,1.911,2.639,2.861,3.956
			c0.776,1.078,1.436,2.234,2.233,3.291c0.113,0.151,0.216,0.316,0.082,0.515c-0.008,0.179-0.016,0.357-0.024,0.536
			C179.314,719.692,178.451,718.7,177.699,717.634z"/>
		<path fill="#7B934B" d="M343.393,700.648c-0.398,0.384-0.794,0.771-1.195,1.153c-1.49,1.422-2.883,2.952-4.452,4.284
			c-0.039-0.317,0.21-0.454,0.379-0.631c1.217-1.275,2.448-2.537,3.66-3.818c0.415-0.438,0.823-0.866,1.425-1.009
			C343.277,700.576,343.337,700.583,343.393,700.648z"/>
		<path fill="#6E5546" d="M236.511,770.544c-0.429-0.488-0.867-0.966-1.286-1.464c-1.273-1.514-2.54-3.033-3.809-4.551
			c0.279-0.198,0.409,0.052,0.563,0.21c0.735,0.757,1.362,1.592,1.978,2.464c0.779,1.102,1.998,1.85,2.569,3.165
			C236.588,770.433,236.582,770.492,236.511,770.544z"/>
		<path fill="#98B65A" d="M313.538,637.832c0.153,0.23,0.318,0.46,0.145,0.754c-0.546,0.923-1.095,1.843-1.643,2.765
			c-0.203,0.125-0.192,0.374-0.301,0.552c-0.131,0.217-0.253,0.44-0.392,0.651c-0.613,0.929-1.097,1.945-1.792,2.817
			c-0.066-0.058-0.075-0.125-0.029-0.201c-0.03-0.363,0.127-0.627,0.379-0.867c0.517-0.494,0.852-1.167,1.181-1.765
			c0.779-1.415,1.465-2.882,2.426-4.183C313.521,638.181,313.529,638.006,313.538,637.832z"/>
		<path fill="#C5D662" d="M271.846,619.049c1.978,0.905,4,1.704,5.939,2.699c-0.294,0.003-0.609,0.092-0.876-0.06
			c-1.083-0.613-2.213-1.108-3.374-1.535c-0.201-0.074-0.346-0.301-0.546-0.382c-0.771-0.316-1.628-0.481-2.301-0.943
			c-0.378-0.259-1.03-0.169-1.16-0.807C270.301,618.363,271.078,618.696,271.846,619.049z"/>
		<path fill="#819651" d="M320.955,722.22c-0.811,0.803-1.607,1.624-2.438,2.405c-0.88,0.828-1.666,1.764-2.634,2.491
			c-0.064-0.053-0.07-0.114-0.018-0.181c1.507-1.673,3.209-3.144,4.678-4.856C320.739,721.943,320.861,722.039,320.955,722.22z"/>
		<path fill="#7A924B" d="M307.497,735.233c-0.281,0.064-0.372,0.483-0.723,0.417c0.016-0.205,0.141-0.341,0.274-0.475
			c0.937-0.951,1.894-1.88,2.797-2.865c0.295-0.322,0.574-0.418,0.957-0.348C309.7,733.051,308.598,734.142,307.497,735.233z"/>
		<path fill="#95B25D" d="M160.859,693.537c1.074,1.352,2.082,2.756,2.998,4.229c0.088,0.14,0.15,0.295,0.132,0.471
			c-0.018,0.069-0.055,0.123-0.115,0.159c-1.268-1.731-2.535-3.461-3.803-5.192c-0.107-0.147-0.133-0.289,0.018-0.424
			c0.084,0.096,0.168,0.194,0.252,0.29C160.502,693.238,160.714,693.352,160.859,693.537z"/>
		<path fill="#B4CF5E" d="M345.201,687.757c1.867,1.021,3.661,2.17,5.469,3.296c-0.648,0.132-1.062-0.391-1.57-0.63
			c-0.898-0.422-1.688-1.055-2.549-1.557c-0.523-0.304-1.122-0.579-1.541-1.082C345.065,687.714,345.129,687.704,345.201,687.757z"
			/>
		<path fill="#94B453" d="M307.09,649.635c-0.332,0.196-0.332,0.69-0.706,0.848c-0.039-0.299,0.042-0.533,0.242-0.773
			c0.7-0.837,1.151-1.843,1.714-2.773c0.365-0.602,0.664-1.272,1.186-1.767c0.01,0.067,0.019,0.133,0.029,0.2
			C308.847,646.862,307.941,648.232,307.09,649.635z"/>
		<path fill="#AFCD52" d="M324.905,675.498c1.268,0.727,2.506,1.509,3.756,2.271c-0.588,0.094-1.008-0.317-1.499-0.524
			c-0.662-0.278-1.158-0.818-1.818-1.127c-0.504-0.236-1.303-0.368-1.342-1.243C324.32,675.056,324.582,675.313,324.905,675.498z"/>
		<path fill="#B5D064" d="M209.829,650.183c0.023,0.423,0.027,0.802-0.25,1.199c-0.341,0.488-0.681,1.06-0.768,1.637
			c-0.127,0.842-0.548,1.503-0.874,2.233c-0.108,0.242-0.104,0.516-0.446,0.509C208.243,653.889,208.95,651.998,209.829,650.183z"/>
		<path fill="#7E8D54" d="M215.694,761.108c-1.414,0.482-2.893,0.758-4.344,1.121c0.375-0.414,0.878-0.481,1.381-0.573
			c0.609-0.111,1.21-0.272,1.818-0.397c1.229-0.253,2.349-1.112,3.695-0.728C217.406,760.773,216.539,760.82,215.694,761.108z"/>
		<path fill="#7A924B" d="M314.256,728.38c0.131,0.323-0.188,0.396-0.3,0.584c-1.034,1.02-1.994,2.123-3.155,2.998
			c0.014-0.09-0.003-0.214,0.048-0.267c1.026-1.067,2.061-2.127,3.093-3.187C314.024,728.409,314.087,728.255,314.256,728.38z"/>
		<path fill="#58643D" d="M263.444,751.96c0.253-0.031,0.492-0.035,0.697,0.176c0.175,0.181,0.357,0.438,0.57,0.482
			c0.66,0.136,1.204,0.514,1.665,0.944c0.448,0.417,1.24,0.439,1.36,1.235C266.283,753.888,264.824,752.988,263.444,751.96z"/>
		<path fill="#79924A" d="M347.224,696.501c0.194,0.306-0.091,0.424-0.23,0.574c-0.503,0.545-1.018,1.079-1.547,1.598
			c-0.651,0.698-1.287,1.411-2.055,1.977c-0.061-0.008-0.122-0.015-0.183-0.023C344.504,699.205,345.824,697.811,347.224,696.501z"
			/>
		<path fill="#9CB768" d="M167.627,703.279c0.41,0.096,0.606,0.468,0.875,0.742c0.342,0.347,0.434,0.876,0.81,1.206
			c0.568,0.498,0.846,1.198,1.166,1.866c0.001,0.11-0.027,0.209-0.113,0.282c-1.031-1.283-1.972-2.638-2.905-3.998
			C167.503,703.321,167.559,703.288,167.627,703.279z"/>
		<path fill="#6A5242" d="M227.005,759.388c0.928,0.568,1.522,1.524,2.359,2.198c0.338,0.272,0.483,0.619,0.422,1.059
			C228.851,761.568,227.863,760.538,227.005,759.388z"/>
		<path fill="#5F4C3F" d="M259.494,754.951c-0.302,0.168-0.538,0.403-0.689,0.724c-0.041,0.149-0.144,0.238-0.272,0.302
			c-0.121-0.197-0.108-0.398-0.011-0.601c0.597-0.645,1.195-1.288,1.792-1.933c0.193-0.209,0.381-0.423,0.703-0.338
			C260.508,753.721,260,754.335,259.494,754.951z"/>
		<path fill="#59473A" d="M256.454,758.374c-0.406,0.278-0.686,0.695-1.054,1.015c-0.064,0.022-0.125,0.018-0.184-0.018
			c0.491-0.968,1.381-1.557,2.071-2.337c0.279-0.315,0.573-0.657,1.006-0.779C257.764,757.041,257.093,757.692,256.454,758.374z"/>
		<path fill="#98A66E" d="M348.74,695.502c-1.089,1.065-2.106,2.213-3.293,3.17c0.11-0.359,0.44-0.524,0.648-0.797
			c0.36-0.474,0.94-0.75,1.129-1.374C347.755,696.209,347.958,695.383,348.74,695.502z"/>
		<path fill="#9EB869" d="M165.264,699.99c0.12,0.001,0.224,0.046,0.305,0.134c0.702,0.771,1.217,1.699,1.932,2.462
			c0.181,0.193,0.184,0.476,0.029,0.725c-0.023,0.023-0.046,0.044-0.07,0.066c-0.784-1.089-1.568-2.179-2.352-3.268
			C165.142,700.043,165.195,700.004,165.264,699.99z"/>
		<path fill="#CADA70" d="M243.668,606.464c-1.098,0.189-1.843-0.637-2.711-1.072c-0.334-0.167-0.843-0.132-1.005-0.626
			C241.239,605.218,242.431,605.895,243.668,606.464z"/>
		<path fill="#96B35F" d="M170.983,707.425c0.347,0.651,0.804,1.207,1.275,1.757c0.173,0.203,0.253,0.457,0.059,0.714
			c-0.006,0.058-0.013,0.117-0.019,0.175c-0.684-0.867-1.348-1.75-1.932-2.696c0.002-0.102,0.004-0.203,0.006-0.304
			C170.681,706.99,170.87,707.213,170.983,707.425z"/>
		<path fill="#5C6740" d="M269.064,755.687c0.282-0.057,0.503,0.089,0.759,0.178c0.627,0.217,0.989,0.812,1.564,1.057
			c0.37,0.158,0.607,0.383,0.736,0.759C271.053,757.096,270.07,756.371,269.064,755.687z"/>
		<path fill="#708C41" d="M321.211,721.663c0.787-0.58,1.3-1.446,2.076-2.024c0.046,0.045,0.073,0.099,0.08,0.164
			c-0.002,0.145-0.146,0.194-0.192,0.309c-0.699,0.75-1.415,1.479-2.22,2.108c-0.137-0.047-0.274-0.094-0.411-0.141
			C320.712,721.856,320.994,721.824,321.211,721.663z"/>
		<path fill="#697944" d="M300.617,752.111c0.003-0.047-0.011-0.124,0.01-0.136c0.847-0.493,1.749-0.832,2.704-1.018
			c0.119-0.023,0.222,0.03,0.295,0.134C302.633,751.462,301.647,751.857,300.617,752.111z"/>
		<path fill="#779046" d="M325.146,717.64c0.447-0.503,1.018-0.759,1.617-0.974c-0.192,0.185-0.385,0.371-0.577,0.557
			c-0.887,0.553-1.515,1.404-2.265,2.116c-0.186,0.177-0.296,0.488-0.629,0.453c-0.002-0.051-0.004-0.102-0.005-0.153
			C323.908,718.974,324.541,718.32,325.146,717.64z"/>
		<path fill="#98A86E" d="M323.173,720.112c0.039-0.106,0.079-0.213,0.118-0.32c0.716-0.723,1.434-1.444,2.149-2.167
			c0.21-0.212,0.394-0.475,0.745-0.402C325.199,718.205,324.254,719.235,323.173,720.112z"/>
		<path fill="#705E52" d="M255.398,759.442c-0.018,0.145-0.113,0.252-0.17,0.378c-0.206,0.354-0.506,0.609-0.823,0.846
			c-0.15,0.183-0.324,0.35-0.414,0.581c-0.143,0.182-0.285,0.364-0.428,0.545c0.001-0.091,0.003-0.182,0.004-0.273
			c0.2-1.006,1.007-1.51,1.649-2.149c0.046,0,0.092,0,0.138,0C255.368,759.394,255.383,759.417,255.398,759.442z"/>
		<path fill="#675143" d="M258.817,795.476c0.049,0.079,0.04,0.149-0.028,0.211c-0.557-0.131-0.317-0.77-0.655-1.083
			c-0.546-0.507-0.853-1.195-0.976-1.956C257.762,793.559,258.353,794.477,258.817,795.476z"/>
		<path fill="#967054" d="M223.72,804.516c-0.017,0.308-0.23,0.306-0.443,0.305c-1.463-0.005-2.926-0.01-4.389-0.014
			C220.492,804.583,222.119,804.772,223.72,804.516z"/>
		<path fill="#B4CF5E" d="M351.472,691.902c-0.331-0.196-0.737-0.365-0.805-0.85c0.18,0.095,0.356,0.196,0.538,0.285
			c1.208,0.593,1.005,1.014,0.141,1.75c-0.066,0.056-0.156,0.079-0.236,0.117c0.086-0.393,0.56-0.494,0.626-0.901
			C351.773,692.078,351.66,692.012,351.472,691.902z"/>
		<path fill="#CADA70" d="M234.454,602.32c-0.805,0.086-1.461-0.309-2.077-0.756c-0.264-0.191-0.725-0.061-0.808-0.535
			C232.578,601.343,233.495,601.881,234.454,602.32z"/>
		<path fill="#6A5346" d="M263.057,803.106c-0.258-0.104-0.148-0.398-0.273-0.572c-0.357-0.502-0.732-0.99-0.963-1.575
			c-0.099-0.15-0.126-0.298,0.007-0.445c0.543,0.834,1.079,1.672,1.512,2.576c0.06,0.065,0.053,0.122-0.02,0.17
			c-0.087-0.052-0.174-0.103-0.261-0.154L263.057,803.106z"/>
		<path fill="#7D944D" d="M304.886,737.7c0.531-0.783,1.142-1.485,1.89-2.051c0.27-0.083,0.384-0.459,0.722-0.417
			C306.62,736.048,305.835,736.969,304.886,737.7z"/>
		<path fill="#BCD46C" d="M343.093,686.637c0.005-0.057,0.01-0.114,0.014-0.171c0.716,0.399,1.434,0.795,2.094,1.292
			c-0.064,0.009-0.128,0.018-0.191,0.027C344.245,687.63,343.643,687.18,343.093,686.637z"/>
		<path fill="#58643C" d="M273.368,758.523c0.888,0.082,1.575,0.512,2.067,1.284C274.672,759.508,274.044,758.974,273.368,758.523z"
			/>
		<path fill="#AFCD52" d="M330.73,679.05c-0.488,0.183-0.756-0.308-1.144-0.398c-0.496-0.115-0.753-0.435-0.926-0.883
			C329.37,678.159,330.076,678.559,330.73,679.05z"/>
		<path fill="#7C6453" d="M264.832,803.84c0.658,0.016,1.322-0.04,1.974,0.103c-0.859,0.01-1.719,0.053-2.576,0.014
			c-0.401-0.019-0.908-0.044-0.909-0.696c0.007-0.057,0.013-0.113,0.02-0.17C263.668,803.707,264.212,803.825,264.832,803.84z"/>
		<path fill="#C5B0A1" d="M195.173,806.447c0.013,0.028-0.001,0.055-0.042,0.082c-0.859,0.238-1.729,0.117-2.799,0.132
			c1.052-0.33,1.924-0.329,2.801-0.256C195.147,806.404,195.16,806.418,195.173,806.447z"/>
		<path fill="#7D9649" d="M191.948,758.105c0.899-0.163,1.552,0.352,2.206,0.866C193.38,758.786,192.667,758.434,191.948,758.105z"
			/>
		<path fill="#614B3C" d="M261.269,799.974c-0.41-0.225-0.459-0.604-0.398-1.027c0.387,0.478,0.695,1.008,0.959,1.567
			c-0.003,0.148-0.004,0.296-0.007,0.445C261.396,800.778,261.649,800.183,261.269,799.974z"/>
		<path fill="#7D9649" d="M189.601,757.249c0.78-0.241,1.344,0.563,2.104,0.474c0.129-0.016,0.201,0.228,0.248,0.386
			C191.142,757.9,190.36,757.606,189.601,757.249z"/>
		<path fill="#6F8C40" d="M315.866,726.936c0.006,0.06,0.012,0.12,0.018,0.181c-0.186,0.181-0.371,0.362-0.557,0.543
			c-0.449,0.099-0.589,0.709-1.096,0.714c-0.096,0.045-0.193,0.089-0.289,0.134C314.372,727.706,315.167,727.384,315.866,726.936z"
			/>
		<path fill="#7E964A" d="M184.52,755.251c0.655-0.168,1.368,0.122,1.787,0.729C185.67,755.843,185.092,755.556,184.52,755.251z"/>
		<path fill="#657640" d="M277.371,759.814c-0.286,0.26-0.668,0.275-1.004,0.394c-0.326,0.114-0.665,0.018-0.816-0.386
			c0.096-0.012,0.193-0.024,0.289-0.036C276.344,760.122,276.864,759.54,277.371,759.814z"/>
		<path fill="#9CB767" d="M163.931,698.32c0.53,0.075,0.754,0.562,1.088,0.893c0.218,0.216,0.363,0.492,0.161,0.818
			c-0.025,0.026-0.049,0.052-0.073,0.078c-0.41-0.572-0.822-1.143-1.233-1.714C163.893,698.369,163.912,698.344,163.931,698.32z"/>
		<path fill="#69513F" d="M237.545,771.379c0.154,0.155,0.383,0.288,0.209,0.575c-0.495-0.394-0.896-0.876-1.243-1.41
			c0.005-0.059,0.011-0.117,0.017-0.176C236.867,770.704,237.209,771.038,237.545,771.379z"/>
		<path fill="#C2D881" d="M227.022,608.599c0.045,0.81-0.295,1.45-0.83,2C226.39,609.897,226.679,609.236,227.022,608.599z"/>
		<path fill="#B7D269" d="M205.843,659.757c0.093,0.793-0.252,1.382-0.806,1.874C205.274,660.992,205.508,660.351,205.843,659.757z"
			/>
		<path fill="#AFC37B" d="M305.978,651.494c-0.107-0.442,0.175-0.716,0.405-1.011c0.21-0.307,0.292-0.727,0.707-0.848
			C306.763,650.283,306.426,650.924,305.978,651.494z"/>
		<path fill="#A2AF7A" d="M313.955,728.965c0.092-0.197,0.184-0.394,0.276-0.591c0.393-0.193,0.536-0.8,1.096-0.714
			C314.91,728.141,314.507,728.638,313.955,728.965z"/>
		<path fill="#83583B" d="M239.953,806.251c0.321-0.001,0.642-0.003,0.963-0.004c0.001,0.094,0.003,0.189,0.004,0.282
			c-0.78,0.06-1.559,0.068-2.339,0.007c0-0.047,0-0.095-0.001-0.142C239.022,806.196,239.51,806.452,239.953,806.251z"/>
		<path fill="#956744" d="M233.206,801.822c0.137-0.82,0.274-1.639,0.411-2.459c0.104,0.732-0.219,1.438-0.122,2.17
			C233.456,801.692,233.462,801.898,233.206,801.822z"/>
		<path fill="#556138" d="M272.121,757.676c0.661-0.107,1.021,0.267,1.249,0.847C272.932,758.274,272.482,758.046,272.121,757.676z"
			/>
		<path fill="#C4D76C" d="M163.631,691.485c-0.402,0.743-1.083,0.353-1.647,0.438C162.519,691.721,163.068,691.575,163.631,691.485z
			"/>
		<path fill="#5F4C3F" d="M261.013,753.109c0.214-0.675,0.738-1.054,1.265-1.429C261.913,752.211,261.51,752.703,261.013,753.109z"
			/>
		<path fill="#4D2B17" d="M287.952,805.385c-0.72,0.321-1.461,0.066-2.193-0.012c0.696,0,1.394,0,2.09,0
			C287.887,805.339,287.921,805.343,287.952,805.385z"/>
		<path fill="#6E584A" d="M259.625,796.814c-0.527-0.176-0.674-0.658-0.837-1.127c0.01-0.07,0.019-0.14,0.028-0.211
			C259.162,795.873,259.414,796.331,259.625,796.814z"/>
		<path fill="#784828" d="M210.077,805.371c0.651,0,1.301,0,1.951,0c-0.002,0.059-0.004,0.117-0.005,0.176
			c-0.681-0.111-1.381,0.185-2.053-0.172C210.005,805.341,210.04,805.339,210.077,805.371z"/>
		<path fill="#764527" d="M216.675,804.941c0.56,0,1.121,0,1.681,0c-0.001,0.059-0.003,0.117-0.004,0.176
			c-0.682-0.103-1.38,0.176-2.053-0.162C216.425,804.95,216.55,804.945,216.675,804.941z"/>
		<path fill="#8C6344" d="M233.627,801.534c0.021,0.391-0.065,0.738-0.385,1.052c-0.021-0.268-0.037-0.473-0.054-0.677
			c-0.022-0.035-0.017-0.064,0.017-0.088c0.096-0.096,0.193-0.192,0.289-0.289C233.539,801.534,233.584,801.534,233.627,801.534z"/>
		<path fill="#657640" d="M277.366,759.815c0.274-0.611,0.795-0.43,1.262-0.424C278.237,759.631,277.812,759.758,277.366,759.815z"
			/>
		<path fill="#7E964A" d="M183.281,754.812c0.46,0.007,0.989-0.193,1.243,0.44C184.079,755.2,183.667,755.047,183.281,754.812z"/>
		<path fill="#CFDE8A" d="M169.689,689.792c-0.318,0.468-0.785,0.439-1.253,0.404C168.803,689.894,169.251,689.858,169.689,689.792z
			"/>
		<path fill="#705E52" d="M255.604,759.37c-0.076,0.083-0.157,0.094-0.241,0.012l-0.01-0.012c0.329-0.377,0.581-0.845,1.1-0.996
			C256.229,758.76,255.916,759.065,255.604,759.37z"/>
		<path fill="#8D9E5D" d="M326.338,667.945c-0.031-0.45-0.131-0.925,0.394-1.173C326.653,667.182,326.57,667.59,326.338,667.945z"/>
		<path fill="#697944" d="M303.763,751.08c0.255-0.523,0.703-0.447,1.143-0.398C304.559,750.922,304.164,751.009,303.763,751.08z"/>
		<path fill="#697944" d="M299.37,752.529c0.296-0.531,0.837-0.27,1.251-0.421C300.25,752.398,299.812,752.472,299.37,752.529z"/>
		<path fill="#B5D064" d="M210.239,649.172c0.042,0.417-0.011,0.791-0.411,1.015C209.862,649.804,210.006,649.469,210.239,649.172z"
			/>
		<path fill="#7D6C62" d="M258.803,755.675c0.025-0.453,0.261-0.687,0.689-0.724C259.263,755.192,259.033,755.433,258.803,755.675z"
			/>
		<path fill="#AAB67F" d="M348.881,695.368c0.184-0.346,0.422-0.628,0.805-0.738C349.494,694.966,349.25,695.241,348.881,695.368z"
			/>
		<path fill="#E9F0D3" d="M160.072,692.362c-0.056,0.141-0.241,0.289,0.018,0.417c-0.007,0.141-0.012,0.283-0.018,0.424
			C159.939,692.922,159.224,692.641,160.072,692.362z"/>
		<path fill="#614B3C" d="M260.874,798.951c-0.509-0.029-0.432-0.403-0.407-0.746C260.669,798.414,260.784,798.674,260.874,798.951z
			"/>
		<path fill="#7B934B" d="M337.744,706.086c-0.119,0.26-0.342,0.409-0.564,0.558c-0.052-0.004-0.104-0.008-0.157-0.012
			C337.165,706.307,337.403,706.122,337.744,706.086z"/>
		<path fill="#9B735B" d="M195.675,806.549c-0.013,0-0.025-0.019-0.038-0.059c-0.012-0.039,0.002-0.077,0.042-0.115
			c0.317,0.033,0.633-0.152,0.95-0.001c0.004,0.053,0.006,0.105,0.009,0.158C196.317,806.539,195.995,806.544,195.675,806.549z"/>
		<path fill="#715E51" d="M260.062,797.512c-0.551,0.039-0.303-0.459-0.435-0.702C259.852,796.99,259.963,797.247,260.062,797.512z"
			/>
		<path fill="#988A80" d="M253.991,761.246c-0.08-0.36,0.164-0.473,0.414-0.581C254.382,760.948,254.167,761.082,253.991,761.246z"
			/>
		<path fill="#C2D881" d="M226.194,610.599c0.023,0.284,0.055,0.572-0.26,0.725C225.915,611.041,225.974,610.79,226.194,610.599z"/>
		<path fill="#59473A" d="M258.402,756.134c0.002-0.26-0.11-0.537,0.118-0.758c0.004,0.2,0.008,0.401,0.011,0.601
			C258.489,756.029,258.446,756.081,258.402,756.134z"/>
		<path fill="#85746A" d="M255.227,759.819c0.045-0.146,0.09-0.291,0.135-0.437c0.081-0.003,0.16-0.008,0.241-0.012
			C255.478,759.52,255.353,759.67,255.227,759.819z"/>
		<path fill="#C4D49A" d="M311.738,641.903c-0.009-0.248,0.011-0.48,0.301-0.552C311.983,641.561,311.896,641.753,311.738,641.903z"
			/>
		<path fill="#9A745A" d="M195.13,806.528c0.01-0.041,0.01-0.083,0.002-0.125c0.18-0.071,0.36-0.128,0.547-0.028
			c-0.001,0.058-0.003,0.116-0.004,0.174C195.491,806.614,195.31,806.598,195.13,806.528z"/>
		<path fill="#8EBF23" d="M230.293,601.733c0.174,0.201,0.169,0.439,0.175,0.679c0.021,0.805,0.068,1.61,0.107,2.413
			c0.151,3.125,0.227,6.253,0.428,9.376c0.137,2.127,0.177,4.263,0.268,6.394c0.132,3.054,0.24,6.109,0.41,9.162
			c0.1,1.797,0.196,3.596,0.268,5.394c0.125,3.15,0.237,6.299,0.416,9.448c0.125,2.198,0.182,4.404,0.283,6.607
			c0.091,1.964,0.194,3.93,0.274,5.894c0.086,2.132,0.16,4.263,0.279,6.394c0.112,2.011,0.189,4.024,0.269,6.037
			c0.077,1.942,0.19,3.882,0.272,5.823c0.127,3.032,0.23,6.062,0.402,9.092c0.096,1.678,0.234,3.365,0.17,5.051
			c-0.024,0.622,0.2,0.564,0.564,0.289c0.056,0.115,0.159,0.135,0.268,0.146c0.039,0.249-0.138,0.359-0.291,0.483
			c-0.394,0.029-0.668,0.234-0.895,0.572c-0.549,0.82-1.168,1.586-1.749,2.383c-2.159,2.956-4.341,5.895-6.49,8.858
			c-1.584,2.184-3.186,4.355-4.778,6.533c-1.023,1.4-1.991,2.846-3.115,4.165c-0.37-0.67-0.229-1.42-0.313-2.135
			c-0.192-1.638-0.388-3.276-0.545-4.92c-0.084-0.88-0.139-1.762-0.231-2.64c-0.176-1.689-0.448-3.366-0.58-5.061
			c-0.118-1.529-0.282-3.054-0.446-4.579c-0.157-1.452-0.373-2.899-0.501-4.354c-0.135-1.528-0.335-3.047-0.462-4.578
			c-0.196-2.348-0.518-4.685-0.787-7.027c0.137-0.573,0.289-1.143,0.407-1.721c0.525-2.588,0.995-5.19,1.571-7.765
			c0.572-2.555,1.109-5.116,1.637-7.681c0.78-3.789,1.699-7.549,2.454-11.343c0.436-2.192,0.994-4.36,1.236-6.599
			c0.129-1.192,0.579-2.333,0.869-3.5c0.534-2.149,0.859-4.344,1.412-6.49c0.61-2.369,0.99-4.802,1.486-7.203
			c0.377-1.824,0.79-3.64,1.17-5.463c0.523-2.516,1.055-5.031,1.568-7.55c0.338-1.658,0.691-3.318,1.059-4.972
			c0.362-1.628,0.721-3.255,1.081-4.883C229.891,602.134,229.952,601.857,230.293,601.733z"/>
		<path fill="#638D2F" d="M235.972,690.627c0.89,0.38,1.781,0.754,2.676,1.122c3.684,1.516,7.353,3.072,11.04,4.582
			c2.897,1.186,5.786,2.397,8.678,3.597c3.254,1.35,6.505,2.707,9.759,4.057c2.935,1.217,5.868,2.439,8.803,3.659
			c3.232,1.343,6.467,2.679,9.695,4.029c3.845,1.609,7.719,3.145,11.537,4.824c0.373,0.27,0.811,0.355,1.237,0.474
			c1.69,0.702,3.394,1.37,5.071,2.101c0.859,0.374,1.772,0.614,2.577,1.118c-0.043,0.06-0.087,0.118-0.13,0.177
			c-1.297,0.461-2.667,0.428-4.001,0.525c-1.871,0.137-3.735,0.376-5.612,0.469c-2.034,0.1-4.061,0.329-6.089,0.52
			c-2.052,0.194-4.109,0.31-6.159,0.522c-2.985,0.308-5.979,0.486-8.967,0.75c-1.984,0.175-3.966,0.366-5.953,0.517
			c-1.827,0.139-3.646,0.369-5.475,0.477c-2.149,0.127-4.292,0.333-6.434,0.532c-2.805,0.26-5.612,0.491-8.419,0.732
			c-3.239,0.278-6.479,0.565-9.719,0.827c-1.181,0.096-2.362,0.34-3.559,0.156c-0.274-0.121-0.397-0.384-0.545-0.623
			c-0.359-0.58-0.656-1.197-0.979-1.799c-1.591-2.968-3.252-5.896-4.806-8.885c-0.128-0.46-0.519-0.389-0.84-0.438
			c-2.067-0.317-4.135-0.628-6.203-0.937c-1.777-0.265-3.554-0.524-5.332-0.785c0-0.317,0.224-0.518,0.383-0.737
			c1.99-2.717,3.997-5.419,5.986-8.135c3.26-4.453,6.512-8.914,9.76-13.377c0.246-0.339,0.502-0.537,0.912-0.329
			C235.283,690.234,235.626,690.48,235.972,690.627z"/>
		<path fill="#6C9E2F" d="M162.445,695.925c-0.693-0.954-1.357-1.939-2.105-2.853c1.701,0.873,3.257,2.004,4.878,3.018
			c4.678,2.926,9.327,5.901,13.993,8.846c4.335,2.736,8.678,5.458,13.016,8.189c3.068,1.93,6.131,3.867,9.199,5.797
			c3.186,2.004,6.38,3.995,9.562,6.005c4.491,2.836,8.976,5.683,13.462,8.528c1.597,1.013,3.239,1.95,4.781,3.056
			c-0.159-0.014-0.326,0.002-0.475-0.046c-3.201-1.038-6.403-2.076-9.6-3.131c-2.955-0.975-5.899-1.988-8.858-2.952
			c-3.063-0.998-6.153-1.912-9.205-2.942c-3.233-1.091-6.481-2.129-9.728-3.172c-3.025-0.972-6.04-1.982-9.053-2.993
			c-0.819-0.275-1.687-0.415-2.435-0.9c-0.057-0.447-0.527-0.596-0.666-0.967c-0.504-1.35-1.479-2.398-2.305-3.489
			c-1.003-1.323-1.878-2.753-2.961-4.013c-0.144-0.168-0.333-0.289-0.424-0.538c-0.23-0.628-0.698-1.074-1.206-1.472
			c-0.432-1.103-1.198-1.956-1.945-2.825c-0.501-0.685-0.808-1.52-1.493-2.062c-0.067-0.054-0.115-0.148-0.143-0.234
			c-0.213-0.658-0.716-1.053-1.206-1.464c-0.083-0.217,0.033-0.505-0.158-0.669c-0.651-0.557-1.029-1.343-1.585-1.977
			c-0.191-0.219-0.273-0.561-0.606-0.635c-0.067-0.845-0.809-1.158-1.249-1.711C163.609,697.407,162.989,696.67,162.445,695.925z"/>
		<path fill="#3C5E27" d="M237.288,726.845c1.522,1.635,3.173,3.132,4.792,4.658c1.277,1.203,2.347,2.665,3.905,3.536
			c0.06,0.033,0.06,0.121,0.046,0.192c-0.212,0.397-0.359,0.82-0.438,1.267c-0.338,1.891-0.674,3.783-1.063,5.662
			c-0.283,1.369-0.418,2.769-0.829,4.109c-0.092,0.189-0.232,0.348-0.319,0.54c-0.06,0.121-0.102,0.249-0.148,0.375
			c-0.288,0.702-0.742,1.304-1.134,1.937c-0.813,1.314-1.45,2.735-2.327,4.005c-0.402,0.359-0.86,0.674-0.904,1.299
			c-0.046,0.053-0.1,0.097-0.161,0.13c-0.643,0.451-0.787,0.4-1.124-0.308c-0.641-1.343-1.213-2.719-1.847-4.065
			c-1.963-4.166-3.834-8.377-5.762-12.56c-0.099-0.215-0.204-0.429-0.175-0.68c0.385-3.295,0.104-6.603,0.19-9.905
			c0.005-0.188-0.035-0.382,0.052-0.562c0.018-1.766-0.042-3.535,0.132-5.298c0.218,0.179,0.15,0.434,0.153,0.663
			c0.009,0.832,0.004,1.665,0,2.498c0.035-2.472-0.046-4.946,0.041-7.328c-0.032,0.049,0.147,0.328-0.163,0.344
			c0-0.757-0.001-1.514-0.002-2.27c0.263,0.099,0.359,0.347,0.482,0.574c0.935,1.714,1.879,3.424,2.808,5.141
			c0.973,1.799,1.93,3.607,2.894,5.411C236.652,726.476,237.025,726.564,237.288,726.845z"/>
		<path fill="#4C6C2A" d="M237.646,755.814c-2.163,0.622-4.361,1.104-6.53,1.707c-0.371,0.02-0.649-0.182-0.927-0.401
			c-0.801-0.63-1.629-1.227-2.435-1.85c-2.491-1.927-5.078-3.722-7.466-5.794c-0.31-0.32-0.598-0.68-1.095-0.668
			c1.273-1.445,2.544-2.893,3.822-4.334c1.713-1.931,3.436-3.853,5.145-5.788c0.506-0.573,0.982-1.173,1.472-1.762
			c0.103-0.133,0.154-0.281,0.165-0.455c0.12-1.842,0.151-3.687,0.108-5.533c0.008-0.355,0.01-0.711,0.025-1.065
			c0.051-1.13-0.092-2.268,0.108-3.393c-0.039,3.373,0.164,6.749-0.118,10.119c-0.026,0.319,0.051,0.602,0.185,0.89
			c0.865,1.856,1.723,3.713,2.572,5.576c0.712,1.562,1.394,3.139,2.113,4.697c0.966,2.096,1.97,4.173,2.918,6.277
			c0.221,0.492,0.304,1.002,0.901,0.364c0.045-0.047,0.176-0.007,0.268-0.007C238.891,755.17,238.571,755.549,237.646,755.814z"/>
		<path fill="#3B5A26" d="M230.203,717.358c0.274-0.232-0.013-0.635,0.238-0.907c0,2.962,0,5.888,0,8.813
			c-0.089-0.001-0.179-0.001-0.268-0.001c0-1.361,0-2.723,0-4.084C230.183,719.905,230.193,718.631,230.203,717.358z"/>
		<path fill="#AECC49" d="M196.634,682.347c0.298-0.352,1.667-0.706,2.204-0.57C198.147,682.153,197.404,682.305,196.634,682.347z"
			/>
		<path fill="#AECC49" d="M198.977,681.634c0.534-0.418,1.161-0.417,1.786-0.429C200.26,681.763,199.619,681.703,198.977,681.634z"
			/>
		<path fill="#ADCA30" d="M298.132,716.633c-2.167-0.886-4.339-1.761-6.502-2.661c-5.751-2.391-11.496-4.799-17.247-7.189
			c-5.028-2.091-10.064-4.165-15.095-6.251c-5.199-2.156-10.397-4.314-15.593-6.478c-2.946-1.227-5.887-2.469-8.83-3.703
			c-0.024-0.222,0.183-0.279,0.277-0.417c2.384-0.63,4.768-1.26,7.151-1.893c4.151-1.104,8.304-2.204,12.453-3.316
			c3.949-1.059,7.892-2.138,11.841-3.195c3.908-1.045,7.82-2.073,11.729-3.11c4.218-1.119,8.436-2.24,12.654-3.36
			c0.182-0.008,0.388,0.039,0.544-0.032c0.622-0.289,0.822,0.019,1.001,0.597c0.398,1.28,0.802,2.557,1.241,3.824
			c0.699,2.022,1.281,4.087,1.943,6.123c1.187,3.646,2.397,7.285,3.594,10.927c0.888,2.704,1.776,5.409,2.654,8.116
			c0.388,1.196,0.756,2.399,1.132,3.6c0.03,0.035,0.072,0.067,0.086,0.108c1.295,3.956,2.588,7.912,3.881,11.868
			c-0.994-0.117-1.86-0.627-2.761-1.011c-1.643-0.701-3.347-1.244-4.934-2.089C298.943,716.948,298.559,716.73,298.132,716.633z"/>
		<path fill="#97BB3A" d="M198.988,748.235c-0.703,0.374-1.405,0.756-2.209,0.845C197.412,748.506,198.205,748.385,198.988,748.235z
			"/>
		<path fill="#49712C" d="M241.421,725.903c2.042-0.134,4.079-0.362,6.12-0.536c1.338-0.114,2.687-0.141,4.017-0.318
			c2.034-0.27,4.085-0.307,6.122-0.534c1.312-0.146,2.64-0.155,3.948-0.325c2.08-0.27,4.176-0.3,6.258-0.536
			c1.358-0.154,2.729-0.197,4.086-0.339c1.992-0.209,3.99-0.337,5.984-0.52c1.429-0.131,2.862-0.226,4.293-0.334
			c2.109-0.159,4.211-0.425,6.325-0.538c1.113-0.06,2.217-0.238,3.332-0.31c2.02-0.129,4.033-0.36,6.051-0.533
			c1.761-0.15,3.523-0.277,5.285-0.417c1.226-0.097,2.451-0.196,3.676-0.295c-0.073,0.195-0.214,0.282-0.411,0.275
			c-0.823,0.085-1.578,0.452-2.379,0.634c-2.146,0.488-4.286,1.003-6.423,1.531c-4.075,1.007-8.152,2.008-12.234,2.983
			c-4.348,1.039-8.691,2.102-13.039,3.141c-4.081,0.975-8.17,1.922-12.235,2.967c-3.443,0.885-6.937,1.551-10.349,2.576
			c-0.454,0.136-0.939,0.249-1.421,0.149c-0.239-0.05-0.39,0.083-0.574,0.165c-0.61,0.146-1.178,0.569-1.849,0.292
			c-0.283,0.02-0.507-0.071-0.746-0.26c-0.967-0.76-1.748-1.725-2.652-2.555c-1.346-1.236-2.615-2.561-3.968-3.791
			c-0.785-0.713-1.504-1.506-2.252-2.263C238.075,726.314,239.743,726.014,241.421,725.903z"/>
		<path fill="#3B5A26" d="M304.382,721.605c-3.871,1.78-7.741,3.564-11.611,5.346c-3.923,1.812-7.843,3.628-11.769,5.433
			c-1.983,0.912-3.974,1.806-5.961,2.707c-0.397-0.159-0.432,0.317-0.696,0.431c-1.648,0.708-3.293,1.43-4.905,2.222
			c-0.295,0.146-0.851,0.03-0.879,0.623c-0.192,0.146-0.436,0.133-0.645,0.232c-2.392,1.134-4.813,2.202-7.213,3.318
			c-2.483,1.155-4.931,2.396-7.465,3.43c-0.16,0.08-0.318,0.167-0.492,0.032c-0.011-1.94-0.346-3.862-0.282-5.805
			c0.008-0.249-0.073-0.488-0.239-0.649c-1.399-1.357-2.542-2.975-4.013-4.259c-0.051,0.041-0.108,0.071-0.171,0.088
			c-0.102,0.004-0.19-0.025-0.248-0.119c1.415-0.205,2.783-0.625,4.169-0.972c4.051-1.012,8.122-1.931,12.173-2.94
			c3.539-0.882,7.097-1.682,10.629-2.598c2.004-0.519,4.03-0.959,6.045-1.449c3.414-0.83,6.835-1.629,10.25-2.452
			c2.462-0.593,4.92-1.205,7.381-1.804c2.279-0.554,4.558-1.109,6.842-1.646c0.397-0.094,0.783-0.438,1.224-0.131
			C305.798,720.964,305.088,721.278,304.382,721.605z"/>
		<path fill="#9FC64A" d="M197.456,679.631c0.162-0.224,0.099-0.59,0.417-0.717C197.929,679.427,197.755,679.727,197.456,679.631z"
			/>
		<path fill="#354B1F" d="M269.804,742.079c-0.128-0.034-0.177-0.303-0.388-0.113c-0.272,0.244-0.642,0.356-0.857,0.681
			c-2.796,2.302-5.759,4.364-8.661,6.512c-0.225,0.167-0.446,0.346-0.751,0.216c-0.735-0.457-1.463-0.923-2.131-1.483
			c-0.483-0.754-1.321-1.048-1.981-1.557c-0.529-0.408-1.037-1.023-1.813-1.024c-0.024-0.024-0.047-0.047-0.071-0.071
			c0.801-0.383,1.581-0.825,2.406-1.138c2.034-0.772,3.919-1.883,5.924-2.726c2.156-0.907,4.244-1.981,6.367-2.971
			c0.219-0.103,0.467-0.227,0.713-0.036C268.975,739.604,269.389,740.841,269.804,742.079z"/>
		<path fill="#7B9640" d="M210.639,758.21c0.113-0.118,0.218-0.108,0.311,0.028c-0.093,0.098-0.186,0.197-0.279,0.296
			C210.543,758.439,210.525,758.33,210.639,758.21z"/>
		<path fill="#5C3B1F" d="M248.355,736.504c0.118,1.411,0.295,2.817,0.447,4.225c0.168,1.548,0.341,3.096,0.504,4.644
			c0.159,1.502,0.294,3.008,0.466,4.509c0.177,1.548,0.387,3.09,0.506,4.645c0.119,1.553,0.251,3.11,0.469,4.65
			c0.259,1.824,0.407,3.659,0.619,5.487c0.124,1.079,0.216,2.162,0.333,3.241c0.206,1.901,0.421,3.801,0.632,5.7
			c0.169,1.524,0.346,3.047,0.506,4.573c0.162,1.55,0.302,3.103,0.46,4.653c0.149,1.457,0.303,2.912,0.467,4.366
			c0.156,1.383,0.346,2.762,0.489,4.146c0.163,1.574,0.274,3.154,0.442,4.728c0.252,2.346,0.533,4.688,0.802,7.032
			c-0.05,0.909,0.23,1.801,0.139,2.713c-0.309-0.423-0.482-0.903-0.553-1.426c0.155-0.125,0.043-0.249,0-0.376
			c-0.272-0.808-0.616-1.588-0.825-2.419c-0.814-3.232-1.782-6.417-2.676-9.624c-0.845-3.034-1.666-6.076-2.541-9.101
			c-0.962-3.325-1.926-6.65-2.825-9.994c-0.418-1.557-0.951-3.078-1.294-4.655c0.148-3.37,0.567-6.716,0.873-10.073
			c0.175-1.938,0.356-3.877,0.523-5.816c0.22-2.553,0.488-5.101,0.694-7.656c0.218-2.697,0.517-5.386,0.733-8.084
			c0.052-0.648-0.022-1.337,0.329-1.938c0.046,0.003,0.092,0.005,0.139,0.008C248.117,735.289,248.303,735.892,248.355,736.504z"/>
		<path fill="#4F3220" d="M255.018,804.118c-0.973-2.093-1.686-4.298-2.518-6.451c-1.291-3.341-2.517-6.709-3.773-10.066
			c-1.183-3.162-2.353-6.331-3.562-9.482c-0.716-1.869-1.331-3.782-2.182-5.595l0,0c-0.111-0.157-0.046-0.348-0.094-0.517
			c0.446-1.281,1.215-2.377,1.876-3.534c0.085-0.063,0.178-0.1,0.284-0.092c0.721,1.725,1.128,3.556,1.618,5.353
			c0.667,2.448,1.357,4.888,2.063,7.323c0.455,1.571,0.99,3.121,1.345,4.715c0.317,1.421,0.803,2.787,1.094,4.22
			c0.31,1.525,1.216,2.894,1.193,4.531c-0.003,0.178,0.083,0.376,0.176,0.534c0.316,0.535,0.443,1.139,0.613,1.727
			c0.387,1.333,0.714,2.684,1.079,4.022c0.327,1.198,0.608,2.421,1.101,3.568c0.023,0.054,0.074,0.206-0.094,0.153
			c-0.06-0.019-0.104-0.089-0.155-0.136C255.061,804.301,255.054,804.202,255.018,804.118z"/>
		<path fill="#6A3B1C" d="M241.211,806.302c4.746,0,9.492,0,14.238,0c0,0.024,0,0.047,0,0.071c-4.737,0-9.474,0-14.211,0
			C241.229,806.349,241.22,806.326,241.211,806.302z"/>
		<path fill="#577C2D" d="M327.163,661.633c0.258,0.042,0.168,0.145,0.04,0.251c-0.667,0.549-1.272,1.241-2.025,1.593
			c-0.453,0.211-0.485,0.809-0.915,0.82c-0.603,0.016-0.663,0.962-1.338,0.759c-0.529,0.991-1.502,1.423-2.333,2.044
			c-0.501,0.374-0.581,0.149-0.601-0.321C322.382,665.062,324.773,663.347,327.163,661.633z"/>
		<path fill="#794B2C" d="M220.435,806.388c0.228-0.244,0.52-0.133,0.781-0.133c6.201-0.007,12.402-0.005,18.602-0.006
			c0.045,0.001,0.089,0.002,0.134,0.004c-0.434,0.288-0.917,0.075-1.373,0.143C232.531,806.393,226.483,806.391,220.435,806.388z"/>
		<path fill="#75492C" d="M242.839,772.243c-0.044-0.05-0.088-0.099-0.132-0.148c-0.003-0.091-0.008-0.182-0.011-0.274
			c0.152-0.085,0.23,0.001,0.287,0.134c-0.001,0.19-0.002,0.38-0.003,0.569C242.87,772.464,242.847,772.357,242.839,772.243z"/>
		<path fill="#5C402B" d="M255.202,752.497l-0.002,0.002c0.214-0.103,0.465-0.152,0.559-0.424l-0.003,0.002
			c0.497-0.159,0.941-0.398,1.222-0.881l0.025,0.032l-0.028-0.029c0.554-0.125,0.909-0.541,1.273-0.942
			c0.345-0.306,0.745-0.555,0.963-0.994c0.203,0.08,0.324-0.047,0.478-0.162c1.885-1.402,3.765-2.817,5.677-4.179
			c1.064-0.758,2.035-1.659,3.191-2.276c-0.436,0.652-1.055,1.104-1.615,1.623c-2.668,2.472-5.327,4.956-7.988,7.436
			c-1.374,1.281-2.716,2.601-4.132,3.829c-0.496,0.431-0.867,1.046-1.528,1.267c0.009-1.063-0.033-2.121-0.265-3.162
			c0.142,0.172,0.282,0.156,0.456,0.032c0.292-0.209,0.599-0.392,0.9-0.587C254.635,752.853,255.059,752.887,255.202,752.497z"/>
		<path fill="#916341" d="M240.579,769.796c-2.201-2.18-4.394-4.368-6.588-6.554c-2.361-2.353-4.717-4.71-7.08-7.06
			c-1.652-1.643-3.335-3.253-4.958-4.926c-0.563-0.58-1.251-1.043-1.662-1.778c0.158,0.092,0.326,0.169,0.471,0.279
			c2.832,2.141,5.654,4.296,8.498,6.421c0.566,0.424,1.053,0.981,1.745,1.214c0.14,0.119,0.324,0.186,0.41,0.369
			c0.148,0.394,0.33,0.744,0.828,0.672c0.091,0.018,0.167,0.065,0.225,0.139c0.1,0.181,0.241,0.32,0.402,0.44
			c0.127,0.119,0.273,0.212,0.415,0.31c0.198,0.19,0.433,0.312,0.688,0.396c0.082,0.048,0.148,0.116,0.199,0.2
			c0.497,0.988,1.562,1.259,2.297,1.949c0.074,0.069,0.219,0.004,0.331,0.011c0.176,0.018,0.296,0.128,0.398,0.266
			c0.318,0.446,0.589,0.952,1.202,1.024c0.06,0.026,0.112,0.061,0.158,0.11c0.457,0.577,0.937,1.11,1.744,1.067
			c1.429,1.035,2.832,2.104,4.238,3.171c0.339,0.258,0.588,0.535,0.365,1.006c-0.64,1.144-1.281,2.29-1.921,3.435
			c-0.096-0.045-0.191-0.089-0.287-0.134C241.99,771.146,241.273,770.482,240.579,769.796z"/>
		<path fill="#4E2E19" d="M257.007,806.107c0.227,0.246,0.52,0.138,0.782,0.138c7.243,0.006,14.485,0.004,21.728,0.009
			c0.238,0.001,0.488-0.071,0.849,0.139c-8.014,0-15.893,0-23.771,0C256.733,806.297,256.871,806.203,257.007,806.107z"/>
		<path fill="#5D3D28" d="M262.785,802.534c0.091,0.19,0.182,0.381,0.273,0.572C262.689,803.058,262.806,802.761,262.785,802.534z"
			/>
		<path fill="#53331D" d="M298.808,806.259c-0.183,0.211-0.427,0.132-0.647,0.132c-2.542,0.004-5.084,0.003-7.627-0.002
			c-0.169-0.001-0.356,0.069-0.581-0.135c2.998,0,5.925,0,8.85,0L298.808,806.259z"/>
		<path fill="#AAC74D" d="M298.132,716.632c0.516-0.159,0.839,0.239,1.222,0.46C298.895,717.087,298.478,716.963,298.132,716.632z"
			/>
		<path fill="#764F32" d="M240.074,764.043c0.194-1.628,0.601-3.212,0.866-4.827c0.632-3.838,1.552-7.619,2.169-11.462
			c0.066-0.253,0.141-0.502,0.174-0.761c0.11-0.184,0.112-0.414,0.242-0.588c0.601-3.205,1.184-6.414,1.816-9.613
			c0.117-0.594,0.047-1.309,0.664-1.711c0.596-0.149,1.193-0.298,1.789-0.447c0.094,0.008,0.187,0.015,0.281,0.023
			c-0.104,1.534-0.184,3.069-0.318,4.6c-0.196,2.257-0.436,4.51-0.645,6.766c-0.079,0.847-0.058,1.709-0.196,2.545
			c-0.341,2.077-0.377,4.185-0.62,6.271c-0.203,1.735-0.293,3.483-0.449,5.225c-0.167,1.857-0.314,3.717-0.543,5.567
			c-0.114,0.916-0.025,1.849-0.256,2.749c-0.047,0.046-0.096,0.093-0.143,0.139c0.026-0.324-0.035-0.571-0.345-0.77
			c-0.499-0.322-0.961-0.706-1.426-1.081c-0.961-0.777-2.037-1.398-2.911-2.295C240.13,764.285,240.087,764.172,240.074,764.043z"/>
		<path fill="#4C6C2A" d="M239.662,753.088c-0.236,0.453-0.445,0.923-0.787,1.306C238.594,753.604,239.237,753.417,239.662,753.088z
			"/>
		<path fill="#CDD0BD" d="M243.26,746.784c0.137-0.011,0.211,0.034,0.162,0.192c-0.049,0.232-0.097,0.463-0.146,0.695
			c-0.09-0.182,0.059-0.436-0.158-0.582C243.104,746.956,243.138,746.848,243.26,746.784z"/>
		<path fill="#BCAC9A" d="M243.524,746.406c0.009,0.198,0.069,0.407-0.103,0.57c-0.054-0.064-0.108-0.128-0.162-0.192
			C243.285,746.611,243.332,746.454,243.524,746.406z"/>
		<path fill="#525F38" d="M254.386,745.641c0.516,0.456,1.091,0.855,1.653,1.221c0.429,0.28,0.825,0.52,1.095,0.963
			c-1.329-0.86-2.657-1.721-3.986-2.582C253.635,745.133,254.016,745.315,254.386,745.641z"/>
		<path fill="#755A47" d="M258.25,750.256c-0.241,0.582-0.52,1.108-1.273,0.942C257.357,750.82,257.772,750.492,258.25,750.256z"/>
		<path fill="#755A47" d="M256.979,751.195c-0.138,0.698-0.568,0.957-1.222,0.881C256.111,751.702,256.535,751.433,256.979,751.195z
			"/>
		<path fill="#755A47" d="M255.202,752.497c0.136,0.233,0.091,0.383-0.181,0.439c-0.212,0.044-0.424,0.098-0.635,0.147
			C254.596,752.795,254.875,752.609,255.202,752.497z"/>
		<path fill="#755A47" d="M255.76,752.075c-0.008,0.396-0.239,0.473-0.559,0.424C255.323,752.266,255.539,752.166,255.76,752.075z"
			/>
		<path fill="#A17858" d="M236.031,761.829c-0.282-0.154-0.314-0.525-0.69-0.616c-0.64-0.154-1.059-0.644-1.286-1.293
			c0.963,0.604,1.834,1.342,2.738,2.03C236.482,762.252,236.291,761.969,236.031,761.829z"/>
		<path fill="#A67F62" d="M240.224,764.374c-0.812,0.106-1.421-0.285-1.778-1.144c0.43,0.18,0.735,0.55,1.122,0.794
			c0.2,0.126,0.409,0.355,0.645,0.049C240.217,764.173,240.22,764.274,240.224,764.374z"/>
		<path fill="#A67F62" d="M237.087,762.191c0.494,0.29,0.945,0.638,1.359,1.04C237.616,763.417,237.414,762.715,237.087,762.191z"/>
		<path fill="#A77F62" d="M231.313,757.76c0.317,0.251,0.632,0.503,0.949,0.753C231.691,758.695,231.452,758.505,231.313,757.76z"/>
		<path fill="#BB9C83" d="M233.206,759.393c-0.011,0-0.023-0.018-0.032-0.054c-0.01-0.035,0.004-0.068,0.041-0.101
			c0.265,0.143,0.531,0.285,0.708,0.55C233.568,759.885,233.381,759.651,233.206,759.393z"/>
		<path fill="#B18F75" d="M232.8,759.096c-0.014,0-0.028-0.018-0.04-0.056c-0.012-0.036,0.004-0.071,0.049-0.104
			c0.169,0.051,0.312,0.142,0.407,0.302c-0.003,0.052-0.005,0.103-0.009,0.155C233.017,759.373,232.886,759.267,232.8,759.096z"/>
		<path fill="#A77F62" d="M232.408,758.63c0.134,0.103,0.268,0.204,0.401,0.306c-0.004,0.054-0.006,0.106-0.01,0.16
			C232.623,758.982,232.372,758.938,232.408,758.63z"/>
	</g>
	<g>
		
			<linearGradient id="SVGID_2_" gradientUnits="userSpaceOnUse" x1="6957.605" y1="-9.6892" x2="6977.7026" y2="41.8947" gradientTransform="matrix(1 0 0 -1 -5263.4014 815.5)">
			<stop  offset="0" style="stop-color:#4E3E3D"/>
			<stop  offset="1" style="stop-color:#69514A"/>
		</linearGradient>
		<polygon fill="url(#SVGID_2_)" points="1686.207,823.029 1700.569,831.536 1711.197,771.835 		"/>
		
			<linearGradient id="SVGID_3_" gradientUnits="userSpaceOnUse" x1="7001.9985" y1="-2.7657" x2="6978.0439" y2="45.3675" gradientTransform="matrix(1 0 0 -1 -5263.4014 815.5)">
			<stop  offset="0" style="stop-color:#534C48"/>
			<stop  offset="1" style="stop-color:#746968"/>
		</linearGradient>
		<polygon fill="url(#SVGID_3_)" points="1711.197,771.835 1700.569,831.536 1711.197,832.106 1773.492,798.7 		"/>
		
			<linearGradient id="SVGID_4_" gradientUnits="userSpaceOnUse" x1="7039.9873" y1="30.5673" x2="6976.5869" y2="47.1521" gradientTransform="matrix(1 0 0 -1 -5263.4014 815.5)">
			<stop  offset="0" style="stop-color:#856858"/>
			<stop  offset="1" style="stop-color:#A38471"/>
		</linearGradient>
		<polygon fill="url(#SVGID_4_)" points="1711.197,771.835 1773.492,798.7 1782.243,771.835 1782.243,771.835 		"/>
		<polygon fill="#95765C" points="1773.492,798.7 1795.849,804.857 1782.243,771.835 		"/>
		<polygon fill="#7B5845" points="1773.492,798.7 1775.539,835.565 1791.029,834.947 1795.849,804.857 		"/>
		
			<linearGradient id="SVGID_5_" gradientUnits="userSpaceOnUse" x1="7030.0405" y1="-23.2637" x2="7001.9824" y2="3.7151" gradientTransform="matrix(1 0 0 -1 -5263.4014 815.5)">
			<stop  offset="0" style="stop-color:#463428"/>
			<stop  offset="1" style="stop-color:#533C36"/>
		</linearGradient>
		<polygon fill="url(#SVGID_5_)" points="1773.492,798.7 1711.197,832.106 1775.539,835.565 		"/>
	</g>
	<g>
		<path fill="#363424" d="M1591.202,683.025c-12.058,17.9,15.893,42.463,12.985,38.929c-2.908-3.534,4.724-16.754,3.174-25.33
			c-1.55-8.576-14.457-13.727-14.457-13.727L1591.202,683.025z"/>
		<polygon fill="#7D6324" points="1574.43,799.853 1589.594,803.901 1586.116,808.672 1580.134,811.563 1567.474,811.563 		"/>
		<polygon fill="#C6C6C6" points="1577.769,758.119 1592.053,770.263 1589.594,803.901 1574.43,799.853 		"/>
		<polygon fill="#EDEDED" points="1594.557,742.702 1592.053,770.263 1577.769,758.119 		"/>
		<polygon fill="#DADADA" points="1595.759,725.545 1594.557,742.702 1577.769,758.119 1572.944,733.45 		"/>
		<polygon fill="#EDEDED" points="1592.932,682.897 1597.868,715.934 1588.898,701.402 1583.751,679.572 		"/>
		<polygon fill="#878787" points="1585.837,571.435 1589.037,583.001 1589.037,601.216 1570.535,576.206 1570.535,559.725 		"/>
		<polygon fill="#706F6F" points="1557.085,559.725 1570.535,559.725 1570.535,576.206 1547.025,584.446 1537.331,563.629 		"/>
		<polygon fill="#3C3C3B" points="1537.331,563.629 1547.025,584.446 1507.75,572.014 		"/>
		<polygon fill="#575756" points="1528.522,559.725 1557.085,559.725 1537.331,563.629 1507.75,572.014 1506.08,565.751 		"/>
		<polygon fill="#575756" points="1507.75,572.014 1547.025,584.446 1522.218,662.993 1514.333,676.103 1487.345,582.613 		"/>
		<polygon fill="#706F6F" points="1487.901,567.098 1506.08,565.751 1507.75,572.014 1487.345,582.613 		"/>
		<polygon fill="#878787" points="1522.218,662.993 1547.025,584.446 1560.797,608.734 1537.982,669.597 1514.333,676.103 		"/>
		<polygon fill="#3C3C3B" points="1570.538,576.206 1589.04,601.216 1585.412,629.841 1560.8,608.734 1547.027,584.446 		"/>
		<polygon fill="#EDEDED" points="1560.797,608.734 1585.409,629.841 1583.751,679.572 1537.982,669.597 		"/>
		<polygon fill="#C6C6C6" points="1583.751,679.572 1588.898,701.402 1572.944,733.45 1561.003,705.924 1557.458,697.753 
			1537.982,669.597 		"/>
		<polygon fill="#EDEDED" points="1588.898,701.402 1597.868,715.934 1595.759,725.545 1572.944,733.45 		"/>
		<polygon fill="#DADADA" points="1585.412,629.841 1592.935,682.897 1583.753,679.572 		"/>
		<polygon fill="#363424" points="1589.04,601.216 1592.935,682.897 1585.412,629.841 		"/>
		<polygon fill="#A27D42" points="1557.461,697.753 1561.006,705.924 1554.84,712.412 1547.027,720.63 1542.715,720.63 
			1531.769,697.753 		"/>
		<polygon fill="#8E713F" points="1531.769,697.753 1542.715,720.63 1536.126,719.473 1530.84,720.63 1527.273,719.045 
			1523.884,717.547 		"/>
		
			<linearGradient id="SVGID_6_" gradientUnits="userSpaceOnUse" x1="398.531" y1="132.1644" x2="416.734" y2="123.9162" gradientTransform="matrix(-1 0 0 -1 1947 815.5)">
			<stop  offset="0" style="stop-color:#C5A776"/>
			<stop  offset="1" style="stop-color:#D0B081"/>
		</linearGradient>
		<polygon fill="url(#SVGID_6_)" points="1537.982,669.597 1557.458,697.753 1531.767,697.753 		"/>
		<polygon fill="#878787" points="1543.199,725.111 1546.387,725.111 1546.387,720.63 1547.027,720.63 1554.84,712.412 
			1552.52,729.448 1539.237,757.708 		"/>
		<polygon fill="#C6C6C6" points="1524.766,741.881 1539.234,757.708 1522.468,792.116 1521.845,761.398 		"/>
		<polygon fill="#DADADA" points="1523.884,717.547 1527.273,719.045 1527.273,726.846 1530.539,727.28 1524.769,741.881 
			1523.884,729.882 1521.291,726.054 		"/>
		<polygon fill="#EDEDED" points="1521.845,761.398 1522.468,792.116 1521.845,798.049 1518.645,801.877 1510.716,787.998 		"/>
		<polygon fill="#7D6324" points="1510.716,787.998 1521.845,798.049 1518.645,801.877 1500.004,801.877 		"/>
		<path fill="#958049" d="M1508.303,684.007l23.466,13.746l-7.885,19.794l-5.654,0.48c0,0-11.502-5.106-12.153-5.106
			c-0.645,0-5.375-4.915-5.375-4.915L1508.303,684.007z"/>
		<polygon fill="#452914" points="1523.884,717.547 1521.291,726.054 1518.231,718.027 		"/>
		<polygon fill="#452914" points="1518.231,718.027 1521.291,726.054 1517.952,726.054 		"/>
		<polygon fill="#8B6E2B" points="1508.306,684.008 1500.699,708.006 1495.413,698.366 		"/>
		<path fill="#3C3C3B" d="M1471.303,709.352l24.111-10.987l5.286,9.64l-8.531,1.157c-11.408,6.072-48.134,7.865-48.134,7.865
			L1471.303,709.352z"/>
		<polygon fill="#452914" points="1530.84,720.63 1530.539,727.28 1527.273,726.846 1527.273,719.045 		"/>
		<polygon fill="#452914" points="1542.715,720.63 1546.387,720.63 1546.387,725.111 1543.199,725.111 1541.741,724.244 		"/>
		<polygon fill="#EDEDED" points="1530.539,727.28 1530.84,720.63 1536.126,719.473 1542.715,720.63 1541.741,724.244 
			1543.199,725.111 1539.237,757.708 1524.769,741.881 		"/>
		<polygon fill="#B7A371" points="1514.333,676.103 1537.982,669.597 1531.767,697.753 1508.306,684.008 		"/>
		<polygon fill="#C6C6C6" points="1454.33,657.598 1514.333,676.103 1508.306,684.008 1495.413,698.366 1471.302,709.353 
			1444.035,717.027 1421.588,714.558 		"/>
		<polygon fill="#F6F6F6" points="1363.349,564.976 1404.711,567.098 1384.539,597.024 1349.343,581.364 1297.275,581.364 
			1297.275,568.613 		"/>
		<polygon fill="#3C3C3B" points="1487.901,567.098 1487.345,582.613 1437.402,607.577 1404.711,567.098 		"/>
		<polygon fill="#706F6F" points="1404.711,567.098 1437.402,607.577 1394.628,617.408 1384.539,597.024 		"/>
		<polygon fill="#DADADA" points="1297.275,581.364 1349.343,581.364 1384.539,597.024 1394.628,617.408 1379.114,644.587 
			1368.446,621.647 1336.474,596.079 1297.275,596.012 		"/>
		<polygon fill="#706F6F" points="1487.345,582.613 1514.333,676.103 1454.33,657.598 1437.402,607.577 		"/>
		<polygon fill="#3C3C3B" points="1389.86,698.738 1398.033,684.008 1421.588,714.558 1394.416,708.006 1389.269,706.896 		"/>
		<polygon fill="#3C3C3B" points="1437.402,607.577 1454.33,657.598 1394.628,617.408 		"/>
		<polygon fill="#EDEDED" points="1394.628,617.408 1454.33,657.598 1421.588,714.558 1398.033,684.008 1379.114,644.587 		"/>
		<path fill="#7D6324" d="M1362.222,806.689l2.009-4.378c0,0,0.123-0.73,0.134-0.759l14.295,0.499
			c-0.891,2.596-1.62,5.84-1.77,9.657h-16.971L1362.222,806.689z"/>
		<path fill="#C6C6C6" d="M1366.874,761.687c0,0-4.096-6.402-3.478-13.879l21.563-11.71l-1.113,11.71c0,0-6.399,26.745-1.391,46.84
			c0,0-2.165,2.614-3.795,7.402l-14.418,0.22c0.162-0.954,3.472-19.933,3.606-26.271
			C1367.987,769.494,1366.874,761.687,1366.874,761.687z"/>
		<line fill="none" x1="1364.242" y1="802.27" x2="1361.727" y2="802.311"/>
		<line fill="none" x1="1381.175" y1="802.01" x2="1378.66" y2="802.05"/>
		<path fill="#EDEDED" d="M1361.726,776.145l-1.808-13.011l-5.286-8.819l-7.79-26.965l4.312-2.238l13.772,4.048l-1.53,18.649
			c-0.617,7.478,3.478,13.879,3.478,13.879s1.113,7.806,0.974,14.312c-0.134,6.338-3.445,25.317-3.606,26.271
			c-0.011,0.028-0.011,0.04-0.011,0.04l-2.009,4.378h-8.703l7.234-18.112L1361.726,776.145z"/>
		<polygon fill="#3C3C3B" points="1361.724,714.558 1390.521,698.366 1389.269,706.896 1386.765,717.449 1384.956,736.098 
			1363.394,747.808 1364.924,729.159 		"/>
		<polygon fill="#706F6F" points="1361.724,714.558 1364.924,729.159 1351.152,725.111 		"/>
		<polygon fill="#3C3C3B" points="1361.724,714.558 1351.152,725.111 1346.839,727.349 1338.587,727.349 1330.051,719.375 		"/>
		<polygon fill="#DADADA" points="1379.114,644.587 1398.033,684.008 1390.521,698.366 1361.724,714.558 1309,676.536 		"/>
		<polygon fill="#EDEDED" points="1361.724,714.558 1330.051,719.375 1314.937,694.706 1309,676.536 		"/>
		<polygon fill="#706F6F" points="1303.939,649.473 1303.939,645.743 1379.116,644.587 1309.003,676.536 1306.031,663.768 
			1306.031,651.526 		"/>
		<polygon fill="#3F403C" points="1303.662,653.57 1298.803,653.974 1299.359,657.118 1306.031,663.762 1306.031,651.815 
			1304.201,653.405 		"/>
		<polyline fill="none" points="1306.037,663.768 1306.031,663.768 1306.031,663.762 		"/>
		<path fill="#3C3C3B" d="M1297.276,596.012l39.175,0.098l31.996,25.536l10.667,22.94l-81.839,1.157
			C1297.275,645.743,1280.119,612.493,1297.276,596.012z"/>
		<path fill="#DADADA" d="M1283.04,571.207l2.868,13.886l0.211,9.328l-10.506-5.447
			C1278.857,586.181,1283.039,571.208,1283.04,571.207z"/>
		<path fill="#3C3C3B" d="M1273.247,591.195c1.308-1.174,2.365-2.221,2.365-2.221l10.506,5.447l1.875,7.882l0.857,2.874
			l-8.692,1.145c0,0-1.53-6.551-5.592-7.708l-1.597-4.268L1273.247,591.195z"/>
		<path fill="#DADADA" d="M1280.159,606.322l8.692-1.145l0.395,1.313l1.113,15.544c0,0-2.783,8.165-5.704,10.918l-4.526,2.166
			c-0.646-5.789-1.946-17.71-1.946-17.71c-0.061-0.116-0.128-0.295-0.2-0.538C1277.983,616.87,1280.949,608.688,1280.159,606.322z"
			/>
		<polygon fill="#575756" points="1272.619,576.709 1282.986,571.724 1297.275,570.138 1311.564,571.724 1321.93,576.709 
			1304.867,560.09 1297.275,560.09 1289.682,560.09 		"/>
		<path fill="#3C3C3B" d="M1280.159,606.322c0.79,2.365-2.176,10.548-2.176,10.548c-1.047-3.377-3.417-18.256-3.417-18.256
			C1278.628,599.771,1280.159,606.323,1280.159,606.322z"/>
		<polygon fill="#917D6A" points="1289.107,631.506 1289.735,639.382 1284.655,632.952 		"/>
		<path fill="#A27D42" d="M1284.655,632.953l5.08,6.43v3.111l-2.159,2.458l-6.911-5.569c-0.467-3.562-0.124-0.553-0.536-4.265
			L1284.655,632.953z"/>
		
			<linearGradient id="SVGID_7_" gradientUnits="userSpaceOnUse" x1="665.639" y1="168.7953" x2="657.8406" y2="169.5044" gradientTransform="matrix(-1 0 0 -1 1947 815.5)">
			<stop  offset="0" style="stop-color:#C5A776"/>
			<stop  offset="1" style="stop-color:#D0B081"/>
		</linearGradient>
		<path fill="url(#SVGID_7_)" d="M1287.577,644.951l2.782,2.238l-1.458,6.216c-1.603-2.024-6.75-5.447-6.75-5.447
			c-0.395-0.989-0.935-4.384-1.486-8.576L1287.577,644.951z"/>
		<path fill="#39362D" d="M1266.43,585.123l2.782-6.17l3.406-2.244l9.803-8.096l0.839,3.111c0,0-4.404,14.457-7.648,17.25
			c0,0-1.057,1.047-2.365,2.221c-1.513,1.354-3.366,2.88-4.312,3.152l-12.453-1.157L1266.43,585.123z"/>
		<polygon fill="#A27D42" points="1252.453,573.748 1261.623,576.594 1261.623,576.599 1266.431,585.123 1256.482,593.19 
			1248.413,586.181 1244.662,578.565 		"/>
		<polygon fill="#1E1E19" points="1269.213,578.953 1266.431,585.123 1261.623,576.599 		"/>
		<polygon fill="#313120" points="1261.701,572.881 1269.213,578.953 1261.623,576.599 1261.623,576.594 1252.453,573.748 		"/>
		<path fill="#5C6649" d="M1273.247,591.194l-0.278,3.152h-4.034C1269.881,594.075,1271.734,592.548,1273.247,591.194z"/>
		<line fill="none" x1="1308.368" y1="646.394" x2="1302.415" y2="644.949"/>
		<polygon fill="#7D6324" points="1364.898,802.541 1362.222,806.688 1353.519,806.688 1356.832,798.394 1364.898,798.394 		"/>
		<path fill="#DADADA" d="M1311.209,571.475l-2.567,13.618l-0.211,9.328l10.506-5.447
			C1315.693,586.181,1311.209,571.477,1311.209,571.475z"/>
		<path fill="#3C3C3B" d="M1321.302,591.195c-1.308-1.174-2.365-2.221-2.365-2.221l-10.506,5.447l-1.875,7.882l-0.857,2.874
			l8.692,1.145c0,0,1.53-6.551,5.592-7.708l1.597-4.268L1321.302,591.195z"/>
		<path fill="#DADADA" d="M1314.39,606.322l-8.692-1.145l-0.395,1.313l-1.113,15.544c0,0,2.783,8.165,5.704,10.918l4.526,2.166
			c0.646-5.789,1.946-17.71,1.946-17.71c0.061-0.116,0.128-0.295,0.2-0.538C1316.566,616.87,1313.6,608.688,1314.39,606.322z"/>
		<path fill="#3C3C3B" d="M1314.39,606.322c-0.79,2.365,2.176,10.548,2.176,10.548c1.047-3.377,3.417-18.256,3.417-18.256
			C1315.921,599.771,1314.39,606.323,1314.39,606.322z"/>
		<polygon fill="#A69582" points="1289.107,631.506 1289.735,639.382 1297.275,639.382 1304.814,639.382 1305.443,631.506 
			1297.275,631.041 		"/>
		<polygon fill="#3A2C1E" points="1288.898,653.405 1297.275,654.1 1305.651,653.405 1304.188,647.189 1297.275,647.086 
			1290.361,647.189 		"/>
		<polygon fill="#917D6A" points="1305.443,631.506 1304.814,639.382 1309.894,632.952 		"/>
		<path fill="#A27D42" d="M1309.894,632.953l-5.08,6.43v3.111l2.159,2.458l6.911-5.569c0.467-3.562,0.124-0.553,0.536-4.265
			L1309.894,632.953z"/>
		
			<linearGradient id="SVGID_8_" gradientUnits="userSpaceOnUse" x1="8199.3418" y1="168.7953" x2="8191.5435" y2="169.5044" gradientTransform="matrix(1 0 0 -1 -6886.1538 815.5)">
			<stop  offset="0" style="stop-color:#C5A776"/>
			<stop  offset="1" style="stop-color:#D0B081"/>
		</linearGradient>
		<path fill="url(#SVGID_8_)" d="M1306.972,644.951l-2.782,2.238l1.458,6.216c1.603-2.024,6.75-5.447,6.75-5.447
			c0.395-0.989,0.935-4.384,1.486-8.576L1306.972,644.951z"/>
		<path fill="#39362D" d="M1328.12,585.123l-2.782-6.17l-3.406-2.244l-9.803-8.096l-1.099,3.105c0,0,4.664,14.463,7.908,17.256
			c0,0,1.057,1.047,2.365,2.221c1.513,1.354,3.366,2.88,4.312,3.152l12.453-1.157L1328.12,585.123z"/>
		<polygon fill="#A27D42" points="1342.096,573.748 1332.926,576.594 1332.926,576.599 1328.118,585.123 1338.068,593.19 
			1346.136,586.181 1349.887,578.565 		"/>
		<polygon fill="#1E1E19" points="1325.336,578.953 1328.118,585.123 1332.926,576.599 		"/>
		<polygon fill="#313120" points="1332.848,572.881 1325.336,578.953 1332.926,576.599 1332.926,576.594 1342.096,573.748 		"/>
		<path fill="#5C6649" d="M1321.302,591.194l0.278,3.152h4.034C1324.668,594.075,1322.815,592.548,1321.302,591.194z"/>
		<polygon fill="#665130" points="1287.576,644.951 1290.359,647.189 1297.275,647.086 1304.19,647.189 1306.973,644.951 
			1304.814,642.493 1304.814,639.382 1297.275,639.382 1289.735,639.382 1289.735,642.493 		"/>
		<path fill="#F6F6F6" d="M1290.359,622.034c0,0-2.783,8.165-5.704,10.918l4.452-1.446l8.168-0.465l8.168,0.465l4.452,1.446
			c-2.922-2.753-5.704-10.918-5.704-10.918l1.113-15.544l0.395-1.313l0.857-2.874l1.875-7.882l0.211-9.328l3.486-16.481h-14.853
			h-14.853l3.486,16.481l0.211,9.328l1.875,7.882l0.857,2.874l0.395,1.313L1290.359,622.034z"/>
	</g>
</g>
</svg>
